<svg xmlns="http://www.w3.org/2000/svg" width="411.412" height="600.583" viewBox="0 0 411.412 685.583">
  <g id="Group_65" data-name="Group 65" transform="translate(-126.737)">
    <path id="Path_68" data-name="Path 68" d="M643.822,153.249a24.79,24.79,0,0,1,5.62-11.8,47.5,47.5,0,0,1,67.04-4.33l.4.36a48.46,48.46,0,0,1,77.96,15,45.146,45.146,0,0,1-2.03,40.99,47.429,47.429,0,0,1-5.59,7.82c-2.19,2.5-61.31,68.27-61.9,68.93a.747.747,0,0,1-.57.26c-.02,0-.05-.01-.08-.01a.267.267,0,0,1-.12-.03.765.765,0,0,1-.47-.34l-.31-.51-.37-.63-5.47-9.14c-15.17-25.35-35.62-49.27-60.79-71.09a39.033,39.033,0,0,1-4.49-4.6,40.469,40.469,0,0,1-9.3-22.76,31.926,31.926,0,0,1,.47-8.12Z" transform="translate(-516.536 -123.814)" fill="#fbc767"/>
    <path id="Path_69" data-name="Path 69" d="M532.03,667.406,520.9,631.145a122.387,122.387,0,0,1,48.921-32.776c-18.3,30.319-.567,69.87-7.957,104.5a73.616,73.616,0,0,1-39.43,50.167l-16.9,20.935a123.357,123.357,0,0,1-9.067-102.888,119.158,119.158,0,0,1,13.8-26.518C520.3,656.373,532.03,667.406,532.03,667.406Z" transform="translate(-123.33 -89.786)" fill="#f2f2f2"/>
    <path id="Path_70" data-name="Path 70" d="M472.641,672.039l6.206-37.42a122.386,122.386,0,0,1,58.4-7.518c-29.9,18.975-31.668,62.284-53.729,89.987A73.616,73.616,0,0,1,425.857,744.4l-24.459,11.2a123.356,123.356,0,0,1,37.771-96.133,119.158,119.158,0,0,1,24.175-17.582C467.066,656.935,472.641,672.039,472.641,672.039Z" transform="translate(0.899 -89.786)" fill="#f2f2f2"/>
    <path id="Path_71" data-name="Path 71" d="M357,302.876l3.074,7.15-5.024,25.4L303.8,328.3l.409-30.966,1.029-6.783Z" transform="translate(-13.329 16.228)" fill="#ffb6b6"/>
    <path id="Path_72" data-name="Path 72" d="M297.078,632.005H285.77l-5.381-43.616h16.689Z" transform="translate(74.989 33.985)" fill="#ffb6b6"/>
    <path id="Path_73" data-name="Path 73" d="M557.676,766.557l17.17-11.862v-7.746l2,.125,12.384.737,3.686.215,2.279,27.342h-8.109l-1.44-7.655-3.708,7.655H560.42a4.834,4.834,0,0,1-2.745-8.812Z" transform="translate(-217.355 -89.786)" fill="#2f2e41"/>
    <path id="Path_74" data-name="Path 74" d="M358.579,632.005H347.271l-6.652-64.213,21.248-1.27Z" transform="translate(-52.754 33.985)" fill="#ffb6b6"/>
    <path id="Path_75" data-name="Path 75" d="M621.194,766.557l17.17-11.862v-7.746l2.177.125,12.6.76,3.289.193,2.279,27.342H650.6l-1.44-7.655-3.708,7.655H623.939a4.834,4.834,0,0,1-2.745-8.812Z" transform="translate(-347.256 -89.786)" fill="#2f2e41"/>
    <path id="Path_76" data-name="Path 76" d="M653.733,718.164h-.044l-2.175-70.919a18.544,18.544,0,0,0-.243-17.524l-.311-.564.807-3.742a23.836,23.836,0,0,0-1.362-14.346l-2.029-66.154c7.248-46.974-27.294-77.609-27.294-77.609l3.175-24.62-55.87,1.27.95,23.351-11.109,38.168c-5.846,56.96-6.194,112.762-.214,167.231a1.041,1.041,0,0,1-.068.46,13.907,13.907,0,0,0,1.123,11.222,4.242,4.242,0,0,1,.506,1.392c1.232,9.549,1.393-2.53,3.025,6.935l-.318.161c-1.144.395-1.635,1.98-1.1,3.54s1.9,2.5,3.046,2.11l29.867.319c1.144-.395,1.635-1.98,1.1-3.54s-1.9-2.5-3.046-2.11l-1.858.94,3.109-10.171,1.09-1.017a4.737,4.737,0,0,0-.6-7.4h0l-.9-29.528-.44-12.5.906-14.181,4.189-63.785,15.855,78.438,16.2,84.964a2.968,2.968,0,0,0-.929,2.753,3.077,3.077,0,0,0,3.066,2.435h21.986a2.995,2.995,0,0,0,2.884-3.791A3.031,3.031,0,0,0,653.733,718.164Z" transform="translate(-278.438 -89.786)" fill="#2f2e41"/>
    <path id="Path_77" data-name="Path 77" d="M631.629,305.973a27.662,27.662,0,1,1-47.578-19.186l.133-.133c.221-.232.443-.465.675-.686a.011.011,0,0,0,.008,0,.011.011,0,0,0,0-.008,5.8,5.8,0,0,0,.874-.786c3.734-5.218,7.968-9.593,18.223-6.86C618.732,282.247,631.629,290.693,631.629,305.973Z" transform="translate(-275.804 -115.045)" fill="#2f2e41"/>
    <path id="Path_78" data-name="Path 78" d="M634.553,294.132a10.132,10.132,0,0,0,11.479,10.47l71.338,58.547L728.266,344l-73.549-51.527a10.187,10.187,0,0,0-20.164,1.662Z" transform="translate(-434.529 -114.293)" fill="#ffb6b6"/>
    <path id="Path_79" data-name="Path 79" d="M676.906,380.414s-2.324,4.822-11.362-2.027c-7.236-5.484-41.781-29.142-49.454-39.142a7.96,7.96,0,0,1-9.489-2.276L625.474,318.8c5.923.4,5.983,4.363,5.476,6.639l15.168,6.027,39.506,22.7-6.976,22.8Z" transform="translate(-362.135 -112.553)" fill="#e6e6e6"/>
    <ellipse id="Ellipse_13" data-name="Ellipse 13" cx="23.195" cy="23.195" rx="23.195" ry="23.195" transform="translate(297.845 174.649)" fill="#ffb7b7"/>
    <path id="Path_80" data-name="Path 80" d="M577.019,427.427l-.238-12.94c-.941-1.293-8.834-12.577-7.065-23.849.828-5.307,3.708-9.764,8.539-13.235l3.119-7.258,4.616-10.728,13.507-8.04,1.871-3.81,1.542-3.164,18.633-1.86,4.593,6.181.091.011a30.148,30.148,0,0,1,11.624,5.444,30.676,30.676,0,0,1,12.134,24.473l-.113,15.038-.023,2.155-.011,2.087-11.624,31.289-.442,1.213-4.559,12.259.782,1.293a6.864,6.864,0,0,1-1.508,8.812l-.544,7.666-.987-.272-5.614-1.565-42.459-11.851a7.711,7.711,0,0,1-4.026-2.71,1.644,1.644,0,0,1-.1-.147,4.274,4.274,0,0,1-.442-.669c-.964-2.438-1.066-3.1-1.077-3.776a9.312,9.312,0,0,1-.454-11.726Z" transform="translate(-287.599 -109.889)" fill="#e6e6e6"/>
    <path id="Path_81" data-name="Path 81" d="M638.545,318.454c-.21-.033-.42-.078-.631-.111-3.618-.642-7.236-1.272-10.843-1.925l-.332-8.177-4.37,7.325c-9.969,3.308-19.3,1.438-28.071-2.689a79.251,79.251,0,0,1-8.409-4.636c-.891-13.829,4.7-22.682,15.1-21.753.38.034.653-.354.985-.52a.011.011,0,0,0,.008,0,.011.011,0,0,0,0-.008c.564-.266,1.14-.52,1.715-.752a25.55,25.55,0,0,1,26.821,5.2C637.6,297.166,640.791,308.33,638.545,318.454Z" transform="translate(-293.316 -115.016)" fill="#2f2e41"/>
    <path id="Path_82" data-name="Path 82" d="M513.787,278.979a4.3,4.3,0,0,0,3.55,3.062c3.119,3.856,6.691,7.938,11.579,8.71a5.568,5.568,0,0,0,4.071-.7,2.267,2.267,0,0,0,.408-.329c1.157-1.1,1.247-3.311-.125-4.139,6.147,2.438,9.742,9.073,10.649,15.616s-.352,13.155-1.179,19.71-1.191,13.439,1.384,19.529c3.039,7.179,10.025,12.339,17.646,13.983.68.147,1.361.272,2.053.352a20.942,20.942,0,0,1,3.379-8.687,18.739,18.739,0,0,0,.805,8.982,35.787,35.787,0,0,0,16.41-4.241c6.906-3.64,12.656-9.2,17.363-15.423-8.109,5.75-19.313,7.9-28.136,3.357-7.893-4.083-12.554-12.656-14.6-21.3s6.539-19.254,5.609-28.089-11.6-16.333-17.426-23.035c-3.72-4.275-9.209-7.44-14.868-6.906a13.36,13.36,0,0,0-11.7,16.5c-1.61-2.279-5.772-1.78-6.8.817A3.361,3.361,0,0,0,513.787,278.979Z" transform="translate(-181.018 -115.529)" fill="#2f2e41"/>
    <path id="Path_83" data-name="Path 83" d="M624.06,318.343s-6.871-25.648-36.325-31.567c-.033-.011-.144-.055-.288-.122-.088-.055-.2-.111-.31-.166.332-.188.653-.354.985-.52a.011.011,0,0,0,.008,0,.011.011,0,0,0,0-.008c.288-.266.575-.531.874-.786l.841.033S619.4,280.525,624.06,318.343Z" transform="translate(-279.135 -114.954)" fill="#bfd8ef"/>
    <path id="Path_84" data-name="Path 84" d="M637.454,440.566a3.913,3.913,0,0,1,3.243-2.456,9.314,9.314,0,0,1,4.208.609,32.36,32.36,0,0,1,13.683,8.9l-.064,2.6a12.428,12.428,0,0,1-.2,15.589,7.663,7.663,0,0,1-3.979,2.576,4.476,4.476,0,0,1-4.385-1.322c-1.568-1.909-.81-4.786.342-6.971a25.4,25.4,0,0,1,8.557-9.382,41.192,41.192,0,0,1-17.3-4.3,9.757,9.757,0,0,1-3.166-2.222,3.923,3.923,0,0,1-.934-3.611Z" transform="translate(-368.361 -106.621)" fill="#2f2e41"/>
    <path id="Path_85" data-name="Path 85" d="M780.462,593.321l11.224.444a36.244,36.244,0,0,1,4.362,16.884c-6.678-8.087-19.469-7.01-28.423-12.471a21.8,21.8,0,0,1-10.153-15.938l-4.193-6.774a36.532,36.532,0,0,1,29.64,7.555,35.283,35.283,0,0,1,6.057,6.456C784.7,591.126,780.462,593.321,780.462,593.321Z" transform="translate(-624.93 -98.924)" fill="#f2f2f2"/>
    <path id="Path_86" data-name="Path 86" d="M724.462,715.321l11.225.444a36.244,36.244,0,0,1,4.362,16.884c-6.678-8.087-19.469-7.009-28.423-12.47a21.8,21.8,0,0,1-10.153-15.937l-4.193-6.774a36.531,36.531,0,0,1,29.64,7.555,35.286,35.286,0,0,1,6.057,6.456C728.7,713.127,724.462,715.321,724.462,715.321Z" transform="translate(-510.393 -89.786)" fill="#f2f2f2"/>
    <path id="Path_87" data-name="Path 87" d="M458.195,542.585l9.514-5.973a36.244,36.244,0,0,1,13.136,11.47c-10.078-2.9-20.026,5.211-30.5,5.761a21.8,21.8,0,0,1-17.379-7.419l-7.286-3.222A36.532,36.532,0,0,1,454.407,532.7a35.285,35.285,0,0,1,8.645,1.906C460.448,538.383,458.195,542.585,458.195,542.585Z" transform="translate(32.581 -101.775)" fill="#f2f2f2"/>
    <path id="Path_88" data-name="Path 88" d="M704.643,282.081c.224-1.5-1.407-2.574-2.017-3.966a6.341,6.341,0,0,1,0-3.817c.352-1.687.758-3.477,1.979-4.693a8.04,8.04,0,0,1,4.41-1.849,38.647,38.647,0,0,1,11.943-.211l-3.01.183a15.852,15.852,0,0,1,5.614.652,5.673,5.673,0,0,1,3.767,3.923c.372,1.858-.9,4.034-2.786,4.193a3.641,3.641,0,1,1,1.493,7.128c.434,1.174,1.727,1.736,2.833,2.322s2.271,1.59,2.084,2.828c-.247,1.637-2.434,1.973-4.088,1.9l-18-.786a9.63,9.63,0,0,1-4.491-.932c-1.334-.778-2.265-2.484-1.649-3.9C703.2,283.96,704.468,283.261,704.643,282.081Z" transform="translate(-506.157 -116.057)" fill="#3f3d56"/>
    <path id="Path_89" data-name="Path 89" d="M586.16,442.421c2.474,10.87,3.65,23.193-2.949,32.92a22.6,22.6,0,0,1-11.7,8.862,33.2,33.2,0,0,1-14.906.916c-11.255-1.559-21.259-7.422-32.328-9.7-4.885-1-10.069-1.336-14.772.6-3.523,1.448-7.235,4.361-7.252,8.515-.017,4.266,3.688,7.1,7.372,8.409,4.917,1.75,10.026,1.073,15.126.852,5.492-.238,11.093.259,15.656,3.623a27.229,27.229,0,0,1,8.7,11.8c2.293,5.566,3.224,11.55,4.691,17.358a77.075,77.075,0,0,0,5.532,15.126,78.352,78.352,0,0,0,19.144,24.815c3.939,3.39,8.726,6.844,14.106,7.155,4.15.24,9.194-1.5,10.793-5.707a8.2,8.2,0,0,0-3.837-9.729c-3.556-1.794-7.429.766-8.578,4.279a5.477,5.477,0,0,0,.571,4.939c1.078,1.608-1.519,3.111-2.59,1.514-2.487-3.708-1.187-8.7,1.859-11.666a8.737,8.737,0,0,1,11.5-.857,11.361,11.361,0,0,1,4.153,11.74c-1.279,4.617-5.816,7.553-10.346,8.281-5.594.9-10.978-1.3-15.493-4.477a69.451,69.451,0,0,1-12.269-11.333A81.44,81.44,0,0,1,552.1,531.6c-3.3-10.581-3.542-24.559-13.354-31.705-5.049-3.677-11.235-3.269-17.155-2.932-5.226.3-10.323.244-15.117-2.122-3.958-1.953-7.152-5.559-7.218-10.152-.067-4.637,3.226-8.366,7.1-10.479,10.248-5.581,22.554-1.08,32.622,2.649,10.124,3.75,21.684,8.151,32.443,4.2a20.125,20.125,0,0,0,11.118-10.623c2.605-5.525,2.976-11.795,2.374-17.791a77.424,77.424,0,0,0-1.65-9.431c-.428-1.88,2.464-2.682,2.893-.8Z" transform="translate(-171.329 -102.919)" fill="#3f3d56"/>
    <path id="Path_90" data-name="Path 90" d="M577.836,502.91a10.132,10.132,0,0,0-3.123-15.22l15.249-45.145L577.51,394.7l-20.078,9.077,12.39,36.085-9.27,52.525a10.187,10.187,0,0,0,17.284,10.518Z" transform="translate(-213.908 -106.754)" fill="#ffb6b6"/>
    <path id="Path_91" data-name="Path 91" d="M571.433,355.285s4.716-2.532,8,8.324c2.626,8.691,20.494,55.88,20.816,68.482a7.96,7.96,0,0,1,6.335,7.423l-25.952,3.591c-4.554-3.808-2.272-7.048-.523-8.59l-8.839-14.972-18.475-40.42,15.2-22.068Z" transform="translate(-226.118 -109.873)" fill="#e6e6e6"/>
    <path id="Path_92" data-name="Path 92" d="M469.172,411.929a100.845,100.845,0,0,0,13.26,27.84q2.16,3.15,4.54,6.14a32.491,32.491,0,0,1,4.45-6.22c6.05-6.65,14.16-11,22.03-15.36s15.86-9.04,21.42-16.11a28.4,28.4,0,0,0,5.24-10.79c1.26-5.33.78-10.89-2.33-15.34-4.52-6.47-13.53-8.75-21.19-6.88s-14.09,7.2-19.07,13.32c1.63-7.52-6.3-14.78-13.97-14.12s-13.82,7.37-15.86,14.79S466.972,404.549,469.172,411.929Z" transform="translate(-70.513 -109.137)" fill="#fbc767"/>
    <path id="Path_93" data-name="Path 93" d="M663.229,136.805a30.4,30.4,0,0,1,20.208,12.864,29.385,29.385,0,0,1,3.913,24.179,29.973,29.973,0,0,1-6.992,12.652c-1.318,1.416-3.436-.709-2.121-2.121a27.5,27.5,0,0,0,7.021-21.451,26.384,26.384,0,0,0-11.228-18.591,27.3,27.3,0,0,0-11.6-4.639c-1.9-.286-1.094-3.178.8-2.893Z" transform="translate(-420.747 -123.814)" fill="#3f3d56"/>
    <g id="Group_63" data-name="Group 63" transform="translate(135.632 60.244)" opacity="0.2">
      <path id="Path_94" data-name="Path 94" d="M711.851,184.129a39.033,39.033,0,0,0,4.49,4.6c25.17,21.82,45.62,45.74,60.79,71.09l5.47,9.14.37.63a15.042,15.042,0,0,0,3.33-3.47c3.5-5.09,3.52-11.78,2.66-17.9a74.633,74.633,0,0,0-77.11-64.09Z" transform="translate(-711.851 -184.059)"/>
    </g>
    <g id="Group_64" data-name="Group 64" transform="translate(412.139 289.031)" opacity="0.2">
      <path id="Path_95" data-name="Path 95" d="M467.321,439.769q2.16,3.15,4.54,6.14a32.491,32.491,0,0,1,4.45-6.22c6.05-6.65,14.16-11,22.03-15.36s15.86-9.04,21.42-16.11a28.4,28.4,0,0,0,5.24-10.79,75.766,75.766,0,0,0-45.9,24.35A73.709,73.709,0,0,0,467.321,439.769Z" transform="translate(-467.321 -397.429)"/>
    </g>
    <ellipse id="Ellipse_14" data-name="Ellipse 14" cx="4" cy="4" rx="4" ry="4" transform="translate(206.565 144.818)" fill="#3f3d56"/>
  </g>
</svg>
