<svg xmlns="http://www.w3.org/2000/svg" width="446.001" height="446" viewBox="0 0 446.001 446">
  <g id="undraw_programmer_re_owql" transform="translate(0.001)">
    <path id="Path_100" data-name="Path 100" d="M685.976,347.232a222.121,222.121,0,0,1-52.54,143.785c-1.235,1.466-2.492,2.909-3.773,4.344a224.23,224.23,0,0,1-52.077,43.2q-6.69,4.016-13.673,7.57c-.471.239-.949.478-1.42.71-.563.285-1.134.563-1.705.841a220.807,220.807,0,0,1-36.668,14.059q-1.968.556-3.943,1.08a222.677,222.677,0,0,1-50.8,7.323c-.9.023-1.775.039-2.624.054-.3.008-.594.015-.887.015-.965.008-1.921.015-2.886.015a223.209,223.209,0,0,1-53.659-6.5q-2.639-.648-5.255-1.366a220.287,220.287,0,0,1-26.984-9.283q-6.945-2.894-13.642-6.242c-1.011-.509-2.022-1.019-3.017-1.543-.424-.208-.841-.432-1.258-.648a224.123,224.123,0,0,1-63-49.43c-1.235-1.381-2.446-2.786-3.642-4.2a223.02,223.02,0,0,1,38.265-323.389c1.266-.934,2.539-1.86,3.827-2.762l.764-.532A221.266,221.266,0,0,1,410.3,130.5c1.528-.378,3.056-.733,4.6-1.065a225.158,225.158,0,0,1,88.49-1.551c1.536.285,3.071.579,4.6.9A221.673,221.673,0,0,1,582.91,159.2c.509.324,1.018.648,1.528.988,1.026.664,2.052,1.343,3.063,2.029a222.758,222.758,0,0,1,98.475,185.013Z" transform="translate(-239.976 -124.232)" fill="#f4f2f0"/>
    <path id="Path_101" data-name="Path 101" d="M406.647,462.6l-71.275,6.327-.764.069V164.866l.764-.532a222.478,222.478,0,0,1,47.849-25.417l3.642,50.233.332,4.6,3.6,49.816,1.111,15.324,14.607,201.935Z" transform="translate(-239.976 -124.232)" fill="#e6e6e6"/>
    <path id="Path_102" data-name="Path 102" d="M582.909,159.2c.509.324,1.019.648,1.528.988v308.8l-1.528-.139-70.5-6.258.131-1.775,14.607-201.935,1.111-15.324,3.6-49.816.332-4.6,3.82-52.679a221.987,221.987,0,0,1,46.9,22.732Z" transform="translate(-239.976 -124.232)" fill="#e6e6e6"/>
    <path id="Path_103" data-name="Path 103" d="M582.909,159.2V473.207c0,6.026-4.151,10.926-9.259,10.926H344.631c-4.229,0-7.817-3.364-8.9-7.955a12.431,12.431,0,0,1-.355-2.971V164.333l-.764.532c-1.289.9-2.562,1.829-3.827,2.762V473.207a17.685,17.685,0,0,0,4.769,12.346,13.164,13.164,0,0,0,6,3.6,11.665,11.665,0,0,0,3.079.409H573.65a11.766,11.766,0,0,0,3.086-.409c6.158-1.659,10.764-8.172,10.764-15.942V162.219c-1.011-.687-2.037-1.366-3.063-2.029C583.928,159.85,583.419,159.526,582.909,159.2Z" transform="translate(-239.976 -124.232)" fill="#e6e6e6"/>
    <rect id="Rectangle_61" data-name="Rectangle 61" width="252.131" height="4.598" transform="translate(93.101 64.92)" fill="#e6e6e6"/>
    <path id="Path_104" data-name="Path 104" d="M410.3,130.5c1.528-.378,3.056-.733,4.6-1.065V254.289h-4.6Z" transform="translate(-239.976 -124.232)" fill="#e6e6e6"/>
    <path id="Path_105" data-name="Path 105" d="M503.386,127.882c1.536.285,3.071.579,4.6.9V254.289h-4.6Z" transform="translate(-239.976 -124.232)" fill="#e6e6e6"/>
    <path id="Path_106" data-name="Path 106" d="M613.944,460.823H312a20.7,20.7,0,0,0,0,41.39H613.944a20.652,20.652,0,0,0,15.528-7.033,20.918,20.918,0,0,0,2.327-3.222,19.711,19.711,0,0,0,1.35-2.747,20.682,20.682,0,0,0-19.206-28.388Z" transform="translate(-239.976 -124.232)" fill="#ccc"/>
    <rect id="Rectangle_62" data-name="Rectangle 62" width="250.598" height="15.327" transform="translate(94.633 119.331)" fill="#e6e6e6"/>
    <path id="Path_107" data-name="Path 107" d="M217.633,114.733h4.6a8.43,8.43,0,0,1,8.43,8.43H209.2a8.43,8.43,0,0,1,8.43-8.43Z" fill="#e6e6e6"/>
    <path id="Path_108" data-name="Path 108" d="M633.436,491.017a223,223,0,0,1-21.7,22.339H314.214a223.007,223.007,0,0,1-21.7-22.339Z" transform="translate(-239.976 -124.232)" fill="#3f3d56"/>
    <path id="Path_109" data-name="Path 109" d="M487.884,413.646H437.79a2.45,2.45,0,0,0-.795.123,2.661,2.661,0,0,0-1.875,2.546v79.138h55.441V416.315a2.672,2.672,0,0,0-2.677-2.67ZM468.925,452.69a5.811,5.811,0,0,1-1.2,3.549,5.915,5.915,0,0,1-10.633-3.55v-9.182a5.918,5.918,0,1,1,11.837,0Z" transform="translate(-239.976 -124.232)" fill="#2f2e41"/>
    <path id="Path_110" data-name="Path 110" d="M434.95,492.922v7.631a1.5,1.5,0,0,0,1.49,1.5h52.8a1.5,1.5,0,0,0,1.489-1.5v-7.631Z" transform="translate(-239.976 -124.232)" fill="#3f3d56"/>
    <path id="Path_111" data-name="Path 111" d="M570.834,290.147H356.707a6.953,6.953,0,0,0-6.945,6.937V441.578a6.95,6.95,0,0,0,6.945,6.945H570.834a6.95,6.95,0,0,0,6.945-6.945V297.084a6.954,6.954,0,0,0-6.945-6.937Z" transform="translate(-239.976 -124.232)" fill="#3f3d56"/>
    <path id="Path_112" data-name="Path 112" d="M569.043,295.162H358.49a3.72,3.72,0,0,0-3.712,3.719V439.8a3.718,3.718,0,0,0,3.712,3.712H569.043a3.718,3.718,0,0,0,3.712-3.712V298.882a3.72,3.72,0,0,0-3.711-3.719Z" transform="translate(-239.976 -124.232)" fill="#fbc767"/>
    <path id="Path_113" data-name="Path 113" d="M530.292,501.927l-1.944-9.236a2.309,2.309,0,0,0-1.435-1.674,2.233,2.233,0,0,0-.818-.154H404.71a2.234,2.234,0,0,0-.818.154,2.309,2.309,0,0,0-1.435,1.674l-1.945,9.236a2.305,2.305,0,0,0,2.253,2.778H528.031a2.275,2.275,0,0,0,1.79-.856,2.3,2.3,0,0,0,.471-1.921Z" transform="translate(-239.976 -124.232)" fill="#2f2e41"/>
    <rect id="Rectangle_63" data-name="Rectangle 63" width="3.858" height="2.315" rx="0.377" transform="translate(165.624 368.294)" fill="#3f3d56"/>
    <rect id="Rectangle_64" data-name="Rectangle 64" width="3.858" height="2.315" rx="0.377" transform="translate(173.34 368.294)" fill="#3f3d56"/>
    <rect id="Rectangle_65" data-name="Rectangle 65" width="3.858" height="2.315" rx="0.377" transform="translate(181.057 368.294)" fill="#3f3d56"/>
    <rect id="Rectangle_66" data-name="Rectangle 66" width="3.858" height="2.315" rx="0.377" transform="translate(188.773 368.294)" fill="#3f3d56"/>
    <rect id="Rectangle_67" data-name="Rectangle 67" width="3.858" height="2.315" rx="0.377" transform="translate(196.489 368.294)" fill="#3f3d56"/>
    <rect id="Rectangle_68" data-name="Rectangle 68" width="3.858" height="2.315" rx="0.377" transform="translate(204.205 368.294)" fill="#3f3d56"/>
    <rect id="Rectangle_69" data-name="Rectangle 69" width="3.858" height="2.315" rx="0.377" transform="translate(211.922 368.294)" fill="#3f3d56"/>
    <rect id="Rectangle_70" data-name="Rectangle 70" width="3.858" height="2.315" rx="0.377" transform="translate(219.638 368.294)" fill="#3f3d56"/>
    <rect id="Rectangle_71" data-name="Rectangle 71" width="3.858" height="2.315" rx="0.377" transform="translate(227.354 368.294)" fill="#3f3d56"/>
    <rect id="Rectangle_72" data-name="Rectangle 72" width="3.858" height="2.315" rx="0.377" transform="translate(235.071 368.294)" fill="#3f3d56"/>
    <rect id="Rectangle_73" data-name="Rectangle 73" width="3.858" height="2.315" rx="0.377" transform="translate(242.787 368.294)" fill="#3f3d56"/>
    <rect id="Rectangle_74" data-name="Rectangle 74" width="3.858" height="2.315" rx="0.377" transform="translate(250.503 368.294)" fill="#3f3d56"/>
    <rect id="Rectangle_75" data-name="Rectangle 75" width="3.858" height="2.315" rx="0.377" transform="translate(258.219 368.294)" fill="#3f3d56"/>
    <rect id="Rectangle_76" data-name="Rectangle 76" width="3.858" height="2.315" rx="0.377" transform="translate(265.936 368.294)" fill="#3f3d56"/>
    <rect id="Rectangle_77" data-name="Rectangle 77" width="3.858" height="2.315" rx="0.377" transform="translate(273.652 368.294)" fill="#3f3d56"/>
    <rect id="Rectangle_78" data-name="Rectangle 78" width="3.858" height="2.315" rx="0.377" transform="translate(281.368 368.294)" fill="#3f3d56"/>
    <rect id="Rectangle_79" data-name="Rectangle 79" width="3.858" height="2.315" rx="0.377" transform="translate(165.533 372.152)" fill="#3f3d56"/>
    <rect id="Rectangle_80" data-name="Rectangle 80" width="3.858" height="2.315" rx="0.377" transform="translate(173.249 372.152)" fill="#3f3d56"/>
    <rect id="Rectangle_81" data-name="Rectangle 81" width="3.858" height="2.315" rx="0.377" transform="translate(180.965 372.152)" fill="#3f3d56"/>
    <rect id="Rectangle_82" data-name="Rectangle 82" width="3.858" height="2.315" rx="0.377" transform="translate(188.682 372.152)" fill="#3f3d56"/>
    <rect id="Rectangle_83" data-name="Rectangle 83" width="3.858" height="2.315" rx="0.377" transform="translate(196.398 372.152)" fill="#3f3d56"/>
    <rect id="Rectangle_84" data-name="Rectangle 84" width="3.858" height="2.315" rx="0.377" transform="translate(204.114 372.152)" fill="#3f3d56"/>
    <rect id="Rectangle_85" data-name="Rectangle 85" width="3.858" height="2.315" rx="0.377" transform="translate(211.831 372.152)" fill="#3f3d56"/>
    <rect id="Rectangle_86" data-name="Rectangle 86" width="3.858" height="2.315" rx="0.377" transform="translate(219.547 372.152)" fill="#3f3d56"/>
    <rect id="Rectangle_87" data-name="Rectangle 87" width="3.858" height="2.315" rx="0.377" transform="translate(227.263 372.152)" fill="#3f3d56"/>
    <rect id="Rectangle_88" data-name="Rectangle 88" width="3.858" height="2.315" rx="0.377" transform="translate(234.979 372.152)" fill="#3f3d56"/>
    <rect id="Rectangle_89" data-name="Rectangle 89" width="3.858" height="2.315" rx="0.377" transform="translate(242.696 372.152)" fill="#3f3d56"/>
    <rect id="Rectangle_90" data-name="Rectangle 90" width="3.858" height="2.315" rx="0.377" transform="translate(250.412 372.152)" fill="#3f3d56"/>
    <rect id="Rectangle_91" data-name="Rectangle 91" width="3.858" height="2.315" rx="0.377" transform="translate(258.128 372.152)" fill="#3f3d56"/>
    <rect id="Rectangle_92" data-name="Rectangle 92" width="3.858" height="2.315" rx="0.377" transform="translate(265.844 372.152)" fill="#3f3d56"/>
    <rect id="Rectangle_93" data-name="Rectangle 93" width="3.858" height="2.315" rx="0.377" transform="translate(273.561 372.152)" fill="#3f3d56"/>
    <rect id="Rectangle_94" data-name="Rectangle 94" width="3.858" height="2.315" rx="0.377" transform="translate(281.277 372.152)" fill="#3f3d56"/>
    <rect id="Rectangle_95" data-name="Rectangle 95" width="30.865" height="2.315" rx="0.377" transform="translate(202.571 376.782)" fill="#3f3d56"/>
    <path id="Path_114" data-name="Path 114" d="M558.463,314.574H361.449a.784.784,0,1,1,0-1.567H558.463a.784.784,0,1,1,0,1.567Z" transform="translate(-239.976 -124.232)" fill="#3f3d56"/>
    <ellipse id="Ellipse_15" data-name="Ellipse 15" cx="4.592" cy="4.694" rx="4.592" ry="4.694" transform="translate(130.293 175.387)" fill="#3f3d56"/>
    <ellipse id="Ellipse_16" data-name="Ellipse 16" cx="4.592" cy="4.694" rx="4.592" ry="4.694" transform="translate(146.154 175.387)" fill="#3f3d56"/>
    <ellipse id="Ellipse_17" data-name="Ellipse 17" cx="4.592" cy="4.694" rx="4.592" ry="4.694" transform="translate(162.016 175.387)" fill="#3f3d56"/>
    <path id="Path_115" data-name="Path 115" d="M548.912,300.78H537.646a.853.853,0,0,0,0,1.705h11.266a.853.853,0,1,0,0-1.705Z" transform="translate(-239.976 -124.232)" fill="#3f3d56"/>
    <path id="Path_116" data-name="Path 116" d="M548.912,303.982H537.646a.853.853,0,0,0,0,1.705h11.266a.853.853,0,1,0,0-1.705Z" transform="translate(-239.976 -124.232)" fill="#3f3d56"/>
    <path id="Path_117" data-name="Path 117" d="M548.912,307.184H537.646a.853.853,0,0,0,0,1.705h11.266a.853.853,0,1,0,0-1.705Z" transform="translate(-239.976 -124.232)" fill="#3f3d56"/>
    <rect id="Rectangle_96" data-name="Rectangle 96" width="8.493" height="4.445" rx="2.222" transform="translate(132.19 208.55)" fill="#e6e6e6"/>
    <rect id="Rectangle_97" data-name="Rectangle 97" width="8.493" height="4.445" rx="2.222" transform="translate(178.488 208.55)" fill="#e6e6e6"/>
    <rect id="Rectangle_98" data-name="Rectangle 98" width="8.493" height="4.445" rx="2.222" transform="translate(191.606 208.55)" fill="#e6e6e6"/>
    <rect id="Rectangle_99" data-name="Rectangle 99" width="29.604" height="4.445" rx="2.222" transform="translate(144.784 208.179)" fill="#e6e6e6"/>
    <rect id="Rectangle_100" data-name="Rectangle 100" width="29.604" height="4.445" rx="2.222" transform="translate(206.514 208.179)" fill="#e6e6e6"/>
    <rect id="Rectangle_101" data-name="Rectangle 101" width="8.493" height="4.445" rx="2.222" transform="translate(144.536 218.581)" fill="#e6e6e6"/>
    <rect id="Rectangle_102" data-name="Rectangle 102" width="8.493" height="4.445" rx="2.222" transform="translate(190.834 218.581)" fill="#e6e6e6"/>
    <rect id="Rectangle_103" data-name="Rectangle 103" width="8.493" height="4.445" rx="2.222" transform="translate(203.952 218.581)" fill="#e6e6e6"/>
    <rect id="Rectangle_104" data-name="Rectangle 104" width="29.604" height="4.445" rx="2.222" transform="translate(157.13 218.211)" fill="#e6e6e6"/>
    <rect id="Rectangle_105" data-name="Rectangle 105" width="29.604" height="4.445" rx="2.222" transform="translate(218.86 218.211)" fill="#e6e6e6"/>
    <rect id="Rectangle_106" data-name="Rectangle 106" width="8.493" height="4.445" rx="2.222" transform="translate(156.882 228.612)" fill="#e6e6e6"/>
    <rect id="Rectangle_107" data-name="Rectangle 107" width="8.493" height="4.445" rx="2.222" transform="translate(203.18 228.612)" fill="#e6e6e6"/>
    <rect id="Rectangle_108" data-name="Rectangle 108" width="8.493" height="4.445" rx="2.222" transform="translate(216.298 228.612)" fill="#e6e6e6"/>
    <rect id="Rectangle_109" data-name="Rectangle 109" width="29.604" height="4.445" rx="2.222" transform="translate(169.476 228.242)" fill="#e6e6e6"/>
    <rect id="Rectangle_110" data-name="Rectangle 110" width="29.604" height="4.445" rx="2.222" transform="translate(231.206 228.242)" fill="#e6e6e6"/>
    <rect id="Rectangle_111" data-name="Rectangle 111" width="8.493" height="4.445" rx="2.222" transform="translate(169.229 238.643)" fill="#e6e6e6"/>
    <rect id="Rectangle_112" data-name="Rectangle 112" width="8.493" height="4.445" rx="2.222" transform="translate(215.526 238.643)" fill="#e6e6e6"/>
    <rect id="Rectangle_113" data-name="Rectangle 113" width="8.493" height="4.445" rx="2.222" transform="translate(228.644 238.643)" fill="#e6e6e6"/>
    <rect id="Rectangle_114" data-name="Rectangle 114" width="29.604" height="4.445" rx="2.222" transform="translate(181.822 238.273)" fill="#e6e6e6"/>
    <rect id="Rectangle_115" data-name="Rectangle 115" width="8.493" height="4.445" rx="2.222" transform="translate(178.488 278.531)" fill="#e6e6e6"/>
    <rect id="Rectangle_116" data-name="Rectangle 116" width="8.493" height="4.445" rx="2.222" transform="translate(191.606 278.531)" fill="#e6e6e6"/>
    <rect id="Rectangle_117" data-name="Rectangle 117" width="29.604" height="4.445" rx="2.222" transform="translate(206.514 278.902)" fill="#e6e6e6"/>
    <rect id="Rectangle_118" data-name="Rectangle 118" width="8.493" height="4.445" rx="2.222" transform="translate(132.19 278.531)" fill="#e6e6e6"/>
    <rect id="Rectangle_119" data-name="Rectangle 119" width="29.604" height="4.445" rx="2.222" transform="translate(144.784 278.902)" fill="#e6e6e6"/>
    <rect id="Rectangle_120" data-name="Rectangle 120" width="8.493" height="4.445" rx="2.222" transform="translate(144.536 268.5)" fill="#e6e6e6"/>
    <rect id="Rectangle_121" data-name="Rectangle 121" width="8.493" height="4.445" rx="2.222" transform="translate(190.834 268.5)" fill="#e6e6e6"/>
    <rect id="Rectangle_122" data-name="Rectangle 122" width="8.493" height="4.445" rx="2.222" transform="translate(203.952 268.5)" fill="#e6e6e6"/>
    <rect id="Rectangle_123" data-name="Rectangle 123" width="29.604" height="4.445" rx="2.222" transform="translate(157.13 268.871)" fill="#e6e6e6"/>
    <rect id="Rectangle_124" data-name="Rectangle 124" width="8.493" height="4.445" rx="2.222" transform="translate(156.882 258.469)" fill="#e6e6e6"/>
    <rect id="Rectangle_125" data-name="Rectangle 125" width="8.493" height="4.445" rx="2.222" transform="translate(203.18 258.469)" fill="#e6e6e6"/>
    <rect id="Rectangle_126" data-name="Rectangle 126" width="8.493" height="4.445" rx="2.222" transform="translate(216.298 258.469)" fill="#e6e6e6"/>
    <rect id="Rectangle_127" data-name="Rectangle 127" width="29.604" height="4.445" rx="2.222" transform="translate(169.476 258.84)" fill="#e6e6e6"/>
    <rect id="Rectangle_128" data-name="Rectangle 128" width="8.493" height="4.445" rx="2.222" transform="translate(169.229 248.438)" fill="#e6e6e6"/>
    <rect id="Rectangle_129" data-name="Rectangle 129" width="8.493" height="4.445" rx="2.222" transform="translate(215.526 248.438)" fill="#e6e6e6"/>
    <rect id="Rectangle_130" data-name="Rectangle 130" width="8.493" height="4.445" rx="2.222" transform="translate(228.644 248.438)" fill="#e6e6e6"/>
    <rect id="Rectangle_131" data-name="Rectangle 131" width="29.604" height="4.445" rx="2.222" transform="translate(181.822 248.809)" fill="#e6e6e6"/>
    <path id="Path_118" data-name="Path 118" d="M560.826,547.677c-.471.239-.949.478-1.42.71-12.192,6.1-21.945,9.56-35.286,13.357-1.127-12.578-2.215-34.685-3.272-48.389-.278-3.557-.556-6.543-.826-8.65a11.714,11.714,0,0,0-.679-3.279l.046,3.279.116,8.65.671,49.469a222.68,222.68,0,0,1-50.8,7.323c-.9.023-1.775.039-2.624.054-.3.008-.594.015-.887.015-.965.008-1.921.015-2.886.015a223.209,223.209,0,0,1-53.659-6.5c.378-12.446.756-34.307,1.119-50.372.077-3.141.147-6.065.224-8.65.147-5.525.3-9.506.448-10.841a3.364,3.364,0,0,0-.3.748,74.964,74.964,0,0,0-1.458,10.093c-.27,2.585-.54,5.509-.81,8.65-1.435,16.69-2.932,39.384-4.475,49.006a220.287,220.287,0,0,1-26.984-9.283q-6.945-2.894-13.642-6.242c.849-5.556,1.736-11.783,2.647-18.241.71-5.008,1.443-10.155,2.191-15.24,1.157-7.855,2.346-15.556,3.549-22.339,1.759-9.908,3.565-17.871,5.355-21.528,1.7-3.472,3.4-6.9,5.039-10.178.571-1.15,1.142-2.284,1.7-3.387.131-.262.262-.517.394-.772,1.181-2.323,2.323-4.545,3.411-6.628.934-1.782,1.821-3.465,2.662-5.016,2.037-3.766,3.766-6.767,5.046-8.665A42.637,42.637,0,0,1,418.021,417.7l.231-.062.162.069,15.78-4.846,2.307-.71,1.551-.478,5.463-4.159,2.971-2.261,2.786-2.122,5.448-4.144,33.728,2.076,6.567,15.811,14.707,5.378.255-.116.224-.093.231.062a42.675,42.675,0,0,1,22.593,17.138c.725,1.088,1.6,2.523,2.6,4.259.849,1.474,1.775,3.156,2.778,5.016,1.427,2.647,2.986,5.633,4.637,8.866.363.71.733,1.435,1.1,2.168q1.03,2.037,2.091,4.159c1.644,3.279,3.341,6.705,5.039,10.185,1.474,3.017,2.963,9.221,4.429,17.115,1.211,6.559,2.415,14.291,3.58,22.339,1.528,10.432-.1,22.925,1.281,32.524C560.648,546.489,560.741,547.083,560.826,547.677Z" transform="translate(-239.976 -124.232)" fill="#3f3d56"/>
    <circle id="Ellipse_18" data-name="Ellipse 18" cx="39.227" cy="39.227" r="39.227" transform="translate(184.248 183.687)" fill="#ffb6b6"/>
    <path id="Path_119" data-name="Path 119" d="M528.14,295.162a20.533,20.533,0,0,0-3.063-5.016c-5.957-7.276-16.791-10.479-27.91-1.867a11.789,11.789,0,0,0-6.443.37,9.962,9.962,0,0,0-2.716,1.5,12.324,12.324,0,0,0-3.812,5.016,11.978,11.978,0,0,0-.849,3.264,39.016,39.016,0,0,0-8.665-3.264,46.56,46.56,0,0,0-22.477,0,28.2,28.2,0,0,0-6.775,2.685c-3.611,2.083-5.687,4.715-6.057,7.639a21.967,21.967,0,0,0-14.661,7.523c-.455.5-.9,1.026-1.3,1.566a25.239,25.239,0,0,0-5.185,15.471v.98h.98a20.734,20.734,0,0,1,7.832,1.528,21.285,21.285,0,0,1,4.545,2.508,22.2,22.2,0,0,1,2.6,2.161,25.837,25.837,0,0,1,4.722,6.212,28.9,28.9,0,0,1,3.148,19.067,27.938,27.938,0,0,1-1.173,4.445,29,29,0,0,1-2.863,5.888c-.046.069-.085.139-.131.208-.517.826-1.011,1.667-1.474,2.516-.347.633-.671,1.281-.972,1.929a40.091,40.091,0,0,0-2.222,5.587,41.346,41.346,0,0,0-1.883,10.448c-.054.941-.069,1.883-.039,2.824a40.1,40.1,0,0,0,.795,7.222c.069.324.139.64.208.965l.563,2.461,1.335,5.872.926,4.043.857,3.75,1.265-1.813c.432-.617,1.52-2.516,2.978-5.2.965-1.752,2.083-3.843,3.295-6.127,1.69-3.2,3.542-6.775,5.355-10.34.733-1.443,1.458-2.878,2.161-4.283,1.327-2.662,2.577-5.232,3.65-7.516.988-2.107,1.829-3.974,2.454-5.471.193.98.355,1.975.478,2.978.139,1.019.239,2.053.293,3.087.015.154.023.316.031.471l.031.633.008.185.818.108a71.777,71.777,0,0,0,14.2.108H473a57.764,57.764,0,0,0,18.179-4.406,38.01,38.01,0,0,0,9.105-5.587,31.868,31.868,0,0,0,3.6-3.488c.278-.316.548-.633.81-.957a31.733,31.733,0,0,0,3.9-6.1,32.248,32.248,0,0,0,1.806-4.445c2.963-8.974,2.793-20.17-.509-33.473a7.657,7.657,0,0,0,2.523-.972c2.423-1.458,4.105-4.352,4.63-7.886l.833.224a23.229,23.229,0,0,0,7.724-5.818,18.616,18.616,0,0,0,1.188-1.566A18.366,18.366,0,0,0,528.14,295.162Z" transform="translate(-239.976 -124.232)" fill="#2f2e41"/>
    <path id="Path_120" data-name="Path 120" d="M159.2,366.751l6.557-25.3,5.79,21.834Z" opacity="0.2"/>
    <path id="Path_121" data-name="Path 121" d="M573.65,474.5c-2.346,32.316.085,46.544-12.863,73.189a220.809,220.809,0,0,1-36.668,14.059q-1.968.556-3.943,1.08a222.677,222.677,0,0,1-50.8,7.323c-.9.023-1.775.039-2.624.054-.3.008-.594.015-.887.015-.965.008-1.921.015-2.886.015a223.209,223.209,0,0,1-53.659-6.5q-2.639-.648-5.255-1.366a220.287,220.287,0,0,1-26.984-9.283q-6.945-2.894-13.642-6.242c-1.011-.509-2.022-1.019-3.017-1.543-5.116-9-8.025-19.939-8.087-33.087C355.874,489.55,565.826,454.958,573.65,474.5Z" transform="translate(-239.976 -124.232)" fill="#2f2e41"/>
    <path id="Path_122" data-name="Path 122" d="M573.644,480.03c.12-2,.254-4.067.41-6.219-7.824-19.538-217.776,15.054-221.318,37.709.01,2.077.1,4.093.248,6.061C361.561,495.221,561.018,462.343,573.644,480.03Z" transform="translate(-239.976 -124.232)" opacity="0.2"/>
    <path id="Path_123" data-name="Path 123" d="M365.824,388.245a4.911,4.911,0,0,0-5.211-5.259,4.519,4.519,0,0,0-.776.1l-30.681,6.931a5.052,5.052,0,0,0-3.248,2.5,6.319,6.319,0,0,0-1.333.194,7.455,7.455,0,1,0,3.3,14.541,7.557,7.557,0,0,0,3.005-1.454l10.4,29.276a4.883,4.883,0,0,0,5.356,2.351l19.946-4.508a4.951,4.951,0,0,0,3.8-4.411Zm-38.413,16.916a5.332,5.332,0,0,1-2.375-10.4c.1-.024.194,0,.291-.024a5.021,5.021,0,0,0,.654,2.52l3.8,6.64A5.02,5.02,0,0,1,327.412,405.161Z" transform="translate(-239.976 -124.232)" fill="#2f2e41"/>
    <path id="Path_124" data-name="Path 124" d="M360.614,382.986c.291,3.878-6.35,8.337-15.244,10.106-8.167,1.672-15.486.509-17.546-2.545a4.648,4.648,0,0,1,1.333-.533l30.681-6.931a4.519,4.519,0,0,1,.776-.1Z" transform="translate(-239.976 -124.232)" fill="#3f3d56"/>
    <path id="Path_125" data-name="Path 125" d="M339.395,481.422l17.233-8.617L342.267,434.03l-3.785-19.555a14.785,14.785,0,0,0-24.138-8.416h0a14.785,14.785,0,0,0-1.923,20.462l14.049,17.561Z" transform="translate(-239.976 -124.232)" fill="#ffb6b6"/>
    <path id="Path_126" data-name="Path 126" d="M356.628,465.624,333.65,477.113l17.438,54.638a23.9,23.9,0,0,0,17.235,15.985h0a23.9,23.9,0,0,0,26.033-10.955l46.24-79.257a24.4,24.4,0,0,0-7.867-33.166h0a24.4,24.4,0,0,0-34.952,9.85l-28.223,60.138Z" transform="translate(-239.976 -124.232)" fill="#3f3d56"/>
    <path id="Path_127" data-name="Path 127" d="M349.521,416.247a.381.381,0,0,1-.125-.021l-5.017-1.727a.385.385,0,0,1-.159-.625l3.731-4.062a.386.386,0,1,1,.568.521l-3.333,3.628,4.459,1.536a.386.386,0,0,1-.125.751Z" transform="translate(-239.976 -124.232)" fill="#fbc767"/>
    <path id="Path_128" data-name="Path 128" d="M356.4,414.839a.386.386,0,0,1-.268-.663l3.391-3.279-4.555-1.877a.386.386,0,0,1,.294-.713l5.1,2.1a.385.385,0,0,1,.121.634l-3.814,3.688a.385.385,0,0,1-.268.108Z" transform="translate(-239.976 -124.232)" fill="#fbc767"/>
    <path id="Path_129" data-name="Path 129" d="M350.574,418.607a.371.371,0,0,1-.113-.017.386.386,0,0,1-.255-.482l3.561-11.574a.386.386,0,0,1,.738.228l-3.561,11.574A.386.386,0,0,1,350.574,418.607Z" transform="translate(-239.976 -124.232)" fill="#fbc767"/>
  </g>
</svg>
