<svg xmlns="http://www.w3.org/2000/svg" width="36.595" height="29.606" viewBox="0 0 36.595 33.394">
  <path id="Icon_simple-linkedin" data-name="Icon simple-linkedin" d="M31.177,28.457H25.758V20.708c0-1.848-.041-4.226-2.824-4.226-2.825,0-3.257,2.011-3.257,4.089v7.885H14.258V12.523h5.206v2.172h.07a5.829,5.829,0,0,1,5.139-2.574c5.491,0,6.506,3.3,6.506,7.59v8.746ZM8.138,10.342A3.016,3.016,0,0,1,4.992,7.469,3.015,3.015,0,0,1,8.138,4.6a3.02,3.02,0,0,1,3.147,2.87A3.022,3.022,0,0,1,8.138,10.342Zm2.717,18.115H5.421V12.523h5.434ZM33.888,0H2.7A2.565,2.565,0,0,0,0,2.406V30.988a2.564,2.564,0,0,0,2.7,2.406H33.884a2.575,2.575,0,0,0,2.711-2.406V2.406A2.576,2.576,0,0,0,33.884,0Z" fill="#384bb5"/>
</svg>
