<svg xmlns="http://www.w3.org/2000/svg" xmlns:xlink="http://www.w3.org/1999/xlink" width="1472" height="934" viewBox="0 0 1472 934">
  <defs>
    <clipPath id="clip-path">
      <rect id="Rectangle_56" data-name="Rectangle 56" width="1472" height="934" transform="translate(632.165 284)" fill="#bfd8ef"/>
    </clipPath>
  </defs>
  <g id="Mask_Group_2" data-name="Mask Group 2" transform="translate(-632.165 -284)" clip-path="url(#clip-path)">
    <g id="Document_Collaboration_1_" data-name="Document Collaboration (1)" transform="translate(714.342 330.542)">
      <path id="Path_177" data-name="Path 177" d="M1223.412,541.7l-39.5,273.946a46.381,46.381,0,0,1-42.449,39.982l-135.867,9.8L687.378,888.378,306.309,915.831c-24.044,1.73-45.726-15.349-50.143-39.5l-50.52-276.45L181.755,469.176l-1.876-10.291-1.1-5.948L168.593,397.2a54.472,54.472,0,0,1-.9-9.842,51.787,51.787,0,0,1,9.661-30.324l4.8-6.655,41.713-57.495,3.448-4.742,7.946-10.948.673-.932a.034.034,0,0,1-.006-.021.037.037,0,0,1,.006-.021l11.456-15.807,1.221-1.664,4.489-6.14,1.248-1.722L273.135,225l64.948-89.516,36.55-50.373a44.425,44.425,0,0,1,36.559-18.776l245.1,3.095,366.095,4.617c19.168.241,36.541,13.061,43.822,32.337l28.461,75.373,3.412,9.026,1.311,3.461,1.921,5.091,1.176,3.111v.05l.557,1.473,2.972,7.87,1.077,2.853,2.577,6.83,1.077,2.854,1.2,3.195.126.3.6,1.614,1.4,3.694.646,1.714,2.693,7.229.638,1.664.9,2.454.7,1.847,3.663,9.709.278.74.952,2.5,6.114,16.189,1.167,3.086,2.28,6.04,5.243,13.885,2.038,5.391L1181.071,410.7l5.755,15.224.6,1.6,6.886,18.244,14.23,37.685,8.377,22.205.476,1.256,2.963,7.853a54.4,54.4,0,0,1,3.053,26.93Z" transform="translate(-72.046 -66.328)" fill="#dadddf"/>
      <path id="Path_178" data-name="Path 178" d="M399.169,145.057V745.829a7.748,7.748,0,0,0,.649,3.1,8.068,8.068,0,0,0,1.849,2.627,8.558,8.558,0,0,0,2.767,1.756,8.934,8.934,0,0,0,3.265.616H887.961a8.765,8.765,0,0,0,6.027-2.374,7.894,7.894,0,0,0,2.493-5.723V217.185l-82.623-78.443a6.6,6.6,0,0,0-4.534-1.782H407.7a8.768,8.768,0,0,0-6.032,2.372,7.894,7.894,0,0,0-2.5,5.726Z" transform="translate(-17.146 -96.529)" fill="#bfd8ef"/>
      <path id="Path_179" data-name="Path 179" d="M399.169,145.057V745.829a7.748,7.748,0,0,0,.649,3.1,8.068,8.068,0,0,0,1.849,2.627,8.558,8.558,0,0,0,2.767,1.756,8.934,8.934,0,0,0,3.265.616H887.961a8.765,8.765,0,0,0,6.027-2.374,7.894,7.894,0,0,0,2.493-5.723V217.185l-82.623-78.443a6.6,6.6,0,0,0-4.534-1.782H407.7a8.768,8.768,0,0,0-6.032,2.372,7.894,7.894,0,0,0-2.5,5.726Z" transform="translate(-17.146 -96.529)" fill="#fff" opacity="0.7"/>
      <path id="Path_180" data-name="Path 180" d="M395.229,145.057V745.829a7.747,7.747,0,0,0,.649,3.1,8.082,8.082,0,0,0,1.849,2.627,8.568,8.568,0,0,0,2.767,1.756,8.933,8.933,0,0,0,3.265.616H884.01a8.924,8.924,0,0,0,3.264-.616,8.467,8.467,0,0,0,2.763-1.756,8.065,8.065,0,0,0,1.858-2.627,7.826,7.826,0,0,0,.645-3.1V217.185L808.031,136.96H403.758a8.77,8.77,0,0,0-6.032,2.372,7.894,7.894,0,0,0-2.5,5.726Z" transform="translate(-18.317 -96.529)" fill="#fff"/>
      <path id="Path_181" data-name="Path 181" d="M797.984,217.185,713.476,136.96v76.98a3.165,3.165,0,0,0,1,2.291,3.511,3.511,0,0,0,2.411.953Z" transform="translate(76.24 -96.529)" fill="#bfd8ef"/>
      <path id="Path_182" data-name="Path 182" d="M797.984,217.185,713.476,136.96v76.98a3.165,3.165,0,0,0,1,2.291,3.511,3.511,0,0,0,2.411.953Z" transform="translate(76.24 -96.529)" fill="#fff" opacity="0.5"/>
      <path id="Path_183" data-name="Path 183" d="M543.051,499.472H444.274a9.365,9.365,0,0,0-9.6,9.112v83.3a9.365,9.365,0,0,0,9.6,9.112h98.777a9.364,9.364,0,0,0,9.6-9.112v-83.3A9.364,9.364,0,0,0,543.051,499.472Z" transform="translate(-6.596 -12.659)" fill="#bfd8ef"/>
      <path id="Path_184" data-name="Path 184" d="M542.45,229.641H439.919a7.533,7.533,0,0,0-7.721,7.33V365.953a7.532,7.532,0,0,0,7.721,7.33H542.45a7.533,7.533,0,0,0,7.721-7.33V236.971A7.534,7.534,0,0,0,542.45,229.641Z" transform="translate(-7.333 -75.086)" fill="#bfd8ef"/>
      <g id="Group_68" data-name="Group 68" transform="translate(453.461 184.33)" opacity="0.3">
        <path id="Path_185" data-name="Path 185" d="M514.886,333.471,494.043,256.5a3.553,3.553,0,0,0-1.333-1.927,3.887,3.887,0,0,0-2.3-.75H478.841a3.9,3.9,0,0,0-2.3.749A3.564,3.564,0,0,0,475.2,256.5l-20.834,76.971a3.581,3.581,0,0,0-.125.914,3.483,3.483,0,0,0,1.126,2.474A3.857,3.857,0,0,0,458,337.876h10.523a3.889,3.889,0,0,0,2.366-.8,3.554,3.554,0,0,0,1.311-2.035l2.022-9.286a1.23,1.23,0,0,1,.455-.708,1.357,1.357,0,0,1,.825-.279h18.292a1.354,1.354,0,0,1,.826.276,1.226,1.226,0,0,1,.454.711l2.031,9.286a3.527,3.527,0,0,0,1.3,2.036,3.863,3.863,0,0,0,2.365.8H511.3a3.912,3.912,0,0,0,1.621-.376,3.717,3.717,0,0,0,1.29-1.006,3.491,3.491,0,0,0,.7-1.438,3.4,3.4,0,0,0-.023-1.586Zm-25.493-23.762h-9.56a1.745,1.745,0,0,1-.721-.155,1.684,1.684,0,0,1-.582-.434,1.569,1.569,0,0,1-.329-.628,1.517,1.517,0,0,1-.014-.7L483,286.011a1.012,1.012,0,0,1,.077-.238,1.608,1.608,0,0,1,.669-.779,1.747,1.747,0,0,1,2,.148,1.575,1.575,0,0,1,.534.868L491.1,307.79a1.5,1.5,0,0,1-.02.7,1.556,1.556,0,0,1-.338.627,1.672,1.672,0,0,1-.59.427,1.751,1.751,0,0,1-.727.143Z" transform="translate(-454.244 -253.822)" fill="#fff" opacity="0.3"/>
      </g>
      <path id="Path_186" data-name="Path 186" d="M512.509,333.471,491.665,256.5a3.546,3.546,0,0,0-1.331-1.929,3.875,3.875,0,0,0-2.3-.749h-11.6a3.875,3.875,0,0,0-2.3.749A3.553,3.553,0,0,0,472.8,256.5l-14.682,54.223-.818,3-1.386,5.008-1.3,4.8-2.7,9.943a3.39,3.39,0,0,0-.036,1.6,3.479,3.479,0,0,0,.709,1.458,3.729,3.729,0,0,0,1.31,1.014,3.922,3.922,0,0,0,1.646.365h10.523a3.889,3.889,0,0,0,2.367-.8,3.553,3.553,0,0,0,1.31-2.035l2.022-9.285a1.237,1.237,0,0,1,.456-.708,1.357,1.357,0,0,1,.824-.279h18.292a1.347,1.347,0,0,1,.821.28,1.222,1.222,0,0,1,.45.707l2.031,9.285a3.548,3.548,0,0,0,1.305,2.034,3.879,3.879,0,0,0,2.363.8h10.552a3.922,3.922,0,0,0,1.65-.362,3.728,3.728,0,0,0,1.314-1.014,3.489,3.489,0,0,0,.711-1.459,3.4,3.4,0,0,0-.036-1.608Zm-35.054-23.762a1.741,1.741,0,0,1-.72-.155,1.683,1.683,0,0,1-.581-.434,1.568,1.568,0,0,1-.329-.628,1.53,1.53,0,0,1-.015-.7l4.814-21.779a1.582,1.582,0,0,1,.534-.868,1.747,1.747,0,0,1,2-.148,1.607,1.607,0,0,1,.669.779.969.969,0,0,1,.077.238l4.746,21.752a1.513,1.513,0,0,1-.01.7,1.572,1.572,0,0,1-.326.629,1.659,1.659,0,0,1-.581.434,1.737,1.737,0,0,1-.72.155Z" transform="translate(-1.506 -69.492)" fill="#fff"/>
      <path id="Path_187" data-name="Path 187" d="M650.361,229.641H547.829a7.533,7.533,0,0,0-7.721,7.33V365.953a7.533,7.533,0,0,0,7.721,7.33H650.361a7.533,7.533,0,0,0,7.721-7.33V236.971A7.533,7.533,0,0,0,650.361,229.641Z" transform="translate(24.729 -75.086)" fill="#61656d"/>
      <path id="Path_188" data-name="Path 188" d="M454.595,373.852H441.03a6.2,6.2,0,0,0-6.354,6.032v12.877a6.2,6.2,0,0,0,6.354,6.032h13.565a6.2,6.2,0,0,0,6.354-6.032V379.884A6.2,6.2,0,0,0,454.595,373.852Z" transform="translate(-6.596 -41.722)" fill="#bfd8ef"/>
      <path id="Path_189" data-name="Path 189" d="M454.595,373.852H441.03a6.2,6.2,0,0,0-6.354,6.032v12.877a6.2,6.2,0,0,0,6.354,6.032h13.565a6.2,6.2,0,0,0,6.354-6.032V379.884A6.2,6.2,0,0,0,454.595,373.852Z" transform="translate(-6.596 -41.722)" fill="#fff" opacity="0.5"/>
      <path id="Path_190" data-name="Path 190" d="M454.595,411.483H441.03a6.2,6.2,0,0,0-6.354,6.032v12.877a6.2,6.2,0,0,0,6.354,6.032h13.565a6.2,6.2,0,0,0,6.354-6.032V417.515A6.2,6.2,0,0,0,454.595,411.483Z" transform="translate(-6.596 -33.016)" fill="#bfd8ef"/>
      <path id="Path_191" data-name="Path 191" d="M454.595,449.12H441.03a6.2,6.2,0,0,0-6.354,6.032v12.877a6.2,6.2,0,0,0,6.354,6.032h13.565a6.2,6.2,0,0,0,6.354-6.032V455.152A6.2,6.2,0,0,0,454.595,449.12Z" transform="translate(-6.596 -24.308)" fill="#61656d"/>
      <path id="Path_192" data-name="Path 192" d="M670.2,379.055H475.757a6.068,6.068,0,1,0,0,12.119H670.2a6.068,6.068,0,1,0,0-12.119Z" transform="translate(3.713 -40.518)" fill="#bfd8ef"/>
      <path id="Path_193" data-name="Path 193" d="M670.2,416.693H475.757a6.068,6.068,0,1,0,0,12.119H670.2a6.068,6.068,0,1,0,0-12.119Z" transform="translate(3.713 -31.81)" fill="#bfd8ef"/>
      <path id="Path_194" data-name="Path 194" d="M670.2,454.323H475.757a6.068,6.068,0,1,0,0,12.119H670.2a6.068,6.068,0,1,0,0-12.119Z" transform="translate(3.713 -23.104)" fill="#bfd8ef"/>
      <path id="Path_195" data-name="Path 195" d="M670.2,379.055H475.757a6.068,6.068,0,1,0,0,12.119H670.2a6.068,6.068,0,1,0,0-12.119Z" transform="translate(3.713 -40.518)" fill="#fff" opacity="0.5"/>
      <path id="Path_196" data-name="Path 196" d="M670.2,416.693H475.757a6.068,6.068,0,1,0,0,12.119H670.2a6.068,6.068,0,1,0,0-12.119Z" transform="translate(3.713 -31.81)" fill="#fff" opacity="0.5"/>
      <path id="Path_197" data-name="Path 197" d="M670.2,454.323H475.757a6.068,6.068,0,1,0,0,12.119H670.2a6.068,6.068,0,1,0,0-12.119Z" transform="translate(3.713 -23.104)" fill="#fff" opacity="0.5"/>
      <path id="Path_198" data-name="Path 198" d="M759.671,379.055H654.463a6.068,6.068,0,1,0,0,12.119H759.671a6.068,6.068,0,1,0,0-12.119Z" transform="translate(56.809 -40.518)" fill="#bfd8ef"/>
      <path id="Path_199" data-name="Path 199" d="M759.671,416.693H654.463a6.068,6.068,0,1,0,0,12.119H759.671a6.068,6.068,0,1,0,0-12.119Z" transform="translate(56.809 -31.81)" fill="#bfd8ef"/>
      <path id="Path_200" data-name="Path 200" d="M759.671,454.323H654.463a6.068,6.068,0,1,0,0,12.119H759.671a6.068,6.068,0,1,0,0-12.119Z" transform="translate(56.809 -23.104)" fill="#bfd8ef"/>
      <path id="Path_201" data-name="Path 201" d="M519.381,522.258H479.033a3.26,3.26,0,0,0-3.341,3.171v.009a3.259,3.259,0,0,0,3.341,3.171h40.348a3.259,3.259,0,0,0,3.341-3.171v-.009A3.259,3.259,0,0,0,519.381,522.258Z" transform="translate(5.59 -7.387)" fill="#fff" opacity="0.3"/>
      <path id="Path_202" data-name="Path 202" d="M460.621,540.246c7.545,0,13.661-5.806,13.661-12.969s-6.116-12.969-13.661-12.969-13.661,5.807-13.661,12.969S453.076,540.246,460.621,540.246Z" transform="translate(-2.946 -9.226)" fill="#fff" opacity="0.3"/>
      <path id="Path_203" data-name="Path 203" d="M519.381,553.646H479.033a3.26,3.26,0,0,0-3.341,3.171v.009A3.259,3.259,0,0,0,479.033,560h40.348a3.259,3.259,0,0,0,3.341-3.171v-.009A3.259,3.259,0,0,0,519.381,553.646Z" transform="translate(5.59 -0.125)" fill="#fff" opacity="0.3"/>
      <path id="Path_204" data-name="Path 204" d="M460.621,571.627c7.545,0,13.661-5.806,13.661-12.969s-6.116-12.969-13.661-12.969S446.96,551.5,446.96,558.658,453.076,571.627,460.621,571.627Z" transform="translate(-2.946 -1.966)" fill="#fff" opacity="0.3"/>
      <path id="Path_205" data-name="Path 205" d="M633.6,314.186H555.857a3.344,3.344,0,0,0-3.427,3.254v12.073a3.344,3.344,0,0,0,3.427,3.254H633.6a3.344,3.344,0,0,0,3.427-3.254V317.439A3.343,3.343,0,0,0,633.6,314.186Z" transform="translate(28.39 -55.526)" fill="#fff"/>
      <path id="Path_206" data-name="Path 206" d="M626.364,287.726H586.016a3.259,3.259,0,0,0-3.341,3.171v.009a3.259,3.259,0,0,0,3.341,3.171h40.348a3.259,3.259,0,0,0,3.341-3.171V290.9A3.26,3.26,0,0,0,626.364,287.726Z" transform="translate(37.377 -61.648)" fill="#bfd8ef"/>
      <path id="Path_207" data-name="Path 207" d="M626.364,287.726H586.016a3.259,3.259,0,0,0-3.341,3.171v.009a3.259,3.259,0,0,0,3.341,3.171h40.348a3.259,3.259,0,0,0,3.341-3.171V290.9A3.26,3.26,0,0,0,626.364,287.726Z" transform="translate(37.377 -61.648)" fill="#fff" opacity="0.3"/>
      <path id="Path_208" data-name="Path 208" d="M566.091,305.706c7.545,0,13.661-5.806,13.661-12.969s-6.116-12.969-13.661-12.969-13.661,5.807-13.661,12.969S558.546,305.706,566.091,305.706Z" transform="translate(28.39 -63.489)" fill="#bfd8ef"/>
      <path id="Path_209" data-name="Path 209" d="M566.091,305.706c7.545,0,13.661-5.806,13.661-12.969s-6.116-12.969-13.661-12.969-13.661,5.807-13.661,12.969S558.546,305.706,566.091,305.706Z" transform="translate(28.39 -63.489)" fill="#fff" opacity="0.3"/>
      <path id="Path_210" data-name="Path 210" d="M626.364,255.8H586.016a3.259,3.259,0,0,0-3.341,3.171v.009a3.259,3.259,0,0,0,3.341,3.171h40.348a3.26,3.26,0,0,0,3.341-3.171v-.009A3.259,3.259,0,0,0,626.364,255.8Z" transform="translate(37.377 -69.035)" fill="#fff" opacity="0.3"/>
      <path id="Path_211" data-name="Path 211" d="M566.091,273.777c7.545,0,13.661-5.806,13.661-12.969s-6.116-12.969-13.661-12.969-13.661,5.806-13.661,12.969S558.546,273.777,566.091,273.777Z" transform="translate(28.39 -70.876)" fill="#fff" opacity="0.3"/>
      <path id="Path_212" data-name="Path 212" d="M983.877,656.834a138.768,138.768,0,0,1-31.106,87.223A151.7,151.7,0,0,1,872.2,795.34a156.693,156.693,0,0,1-20.583,3.838,161,161,0,0,1-18.889,1.115q-7.293,0-14.441-.649a156.376,156.376,0,0,1-53.518-14.623,153.816,153.816,0,0,1-21.179-12.283q-5.112-3.564-9.906-7.5a146.436,146.436,0,0,1-17.137-16.7.559.559,0,0,1-.125-.137,138.6,138.6,0,0,1-34.726-88.35v-3.19a138.556,138.556,0,0,1,1.155-17.849v-.457c4.371-32.555,20.386-62.7,45.365-85.387a154.681,154.681,0,0,1,91.862-39.253q6.253-.493,12.66-.5,4.679,0,9.291.275c38.4,2.227,74.458,18.284,100.818,44.891s41.022,61.762,41,98.284Z" transform="translate(66.797 -9.434)" fill="#4f5156"/>
      <path id="Path_213" data-name="Path 213" d="M688.566,618.976l-18.677-17.667a2.231,2.231,0,0,0-1.408-.613,2.26,2.26,0,0,0-1.481.43h-.058a5.046,5.046,0,0,0-2.008,3.1,4.854,4.854,0,0,0,.689,3.575l4.188,6.5Z" transform="translate(61.79 10.759)" fill="#956363"/>
      <path id="Path_214" data-name="Path 214" d="M688.566,618.976l-18.677-17.667a2.231,2.231,0,0,0-1.408-.613,2.26,2.26,0,0,0-1.481.43h-.058a5.046,5.046,0,0,0-2.008,3.1,4.854,4.854,0,0,0,.689,3.575l4.188,6.5Z" transform="translate(61.79 10.759)" opacity="0.15"/>
      <path id="Path_215" data-name="Path 215" d="M698.274,632.213l-5.526-24.466a2.011,2.011,0,0,1,.232-1.443,2.186,2.186,0,0,1,1.164-.951h.067a5.619,5.619,0,0,1,3.829.075,5.251,5.251,0,0,1,2.795,2.484l3.485,6.864Z" transform="translate(70.068 11.768)" fill="#956363"/>
      <path id="Path_216" data-name="Path 216" d="M698.274,632.213l-5.526-24.466a2.011,2.011,0,0,1,.232-1.443,2.186,2.186,0,0,1,1.164-.951h.067a5.619,5.619,0,0,1,3.829.075,5.251,5.251,0,0,1,2.795,2.484l3.485,6.864Z" transform="translate(70.068 11.768)" opacity="0.15"/>
      <path id="Path_217" data-name="Path 217" d="M760.066,530.266H521.317a9.365,9.365,0,0,0-9.6,9.112v83.3a9.364,9.364,0,0,0,9.6,9.112H760.066a9.364,9.364,0,0,0,9.6-9.112v-83.3A9.365,9.365,0,0,0,760.066,530.266Z" transform="translate(16.294 -5.534)" fill="#bfd8ef"/>
      <path id="Path_218" data-name="Path 218" d="M755.57,530.266H521.23a9.281,9.281,0,0,0-9.512,9.03v83.469a9.28,9.28,0,0,0,9.512,9.03H755.57a9.28,9.28,0,0,0,9.512-9.03V539.3A9.28,9.28,0,0,0,755.57,530.266Z" transform="translate(16.294 -5.534)" fill="#fff" opacity="0.5"/>
      <path id="Path_219" data-name="Path 219" d="M598.217,550.51l-.606-.612-11.283,10.053.607.612a23.861,23.861,0,0,1-.114,33.912,26.694,26.694,0,0,1-17.411,7.71,27.011,27.011,0,0,1-18.251-5.7l-.674-.539L540.607,607.2l.683.539a42.985,42.985,0,0,0,29.044,9.052,42.484,42.484,0,0,0,27.7-12.274,37.974,37.974,0,0,0,.182-53.963Z" transform="translate(24.877 -0.993)" fill="#fff"/>
      <path id="Path_220" data-name="Path 220" d="M598.709,552.753a41.783,41.783,0,0,0-18.292-10.83h0l-.857-.229-.828-.219a43.858,43.858,0,0,0-10.349-1.234,42.5,42.5,0,0,0-28.8,11.022l-.635.585,10.7,10.547.645-.585a26.744,26.744,0,0,1,18.09-6.918,27.652,27.652,0,0,1,7.047.914h0a26.412,26.412,0,0,1,12.025,6.964l.6.612,11.293-10Z" transform="translate(24.386 -3.227)" fill="#bfd8ef"/>
      <path id="Path_221" data-name="Path 221" d="M554.427,596.719a25.024,25.024,0,0,1-6.718-8.126,23.639,23.639,0,0,1-.759-20.191,24.752,24.752,0,0,1,6.09-8.56l.635-.576-10.7-10.556-.645.585a39.373,39.373,0,0,0-9.7,13.618,37.6,37.6,0,0,0,1.218,32.135,39.793,39.793,0,0,0,10.707,12.921l.674.539,9.839-11.25Z" transform="translate(21.609 -1.267)" fill="#61656d"/>
      <path id="Path_222" data-name="Path 222" d="M574.245,567.541h-19.3a3.241,3.241,0,0,0-3.321,3.153v5.283a3.24,3.24,0,0,0,3.321,3.153h19.3a3.24,3.24,0,0,0,3.321-3.153v-5.283A3.241,3.241,0,0,0,574.245,567.541Z" transform="translate(28.15 3.089)" fill="#bfd8ef"/>
      <path id="Path_223" data-name="Path 223" d="M574.245,567.541h-19.3a3.241,3.241,0,0,0-3.321,3.153v5.283a3.24,3.24,0,0,0,3.321,3.153h19.3a3.24,3.24,0,0,0,3.321-3.153v-5.283A3.241,3.241,0,0,0,574.245,567.541Z" transform="translate(28.15 3.089)" fill="#bfd8ef"/>
      <path id="Path_224" data-name="Path 224" d="M690,554.077H615.3a2.545,2.545,0,0,0-2.609,2.476v.01a2.546,2.546,0,0,0,2.609,2.477H690a2.546,2.546,0,0,0,2.609-2.477v-.01A2.545,2.545,0,0,0,690,554.077Z" transform="translate(46.294 -0.026)" fill="#fff"/>
      <path id="Path_225" data-name="Path 225" d="M690,569.478H615.3a2.545,2.545,0,0,0-2.609,2.476v.01a2.546,2.546,0,0,0,2.609,2.477H690a2.546,2.546,0,0,0,2.609-2.477v-.01A2.545,2.545,0,0,0,690,569.478Z" transform="translate(46.294 3.537)" fill="#fff"/>
      <path id="Path_226" data-name="Path 226" d="M690,584.886H615.3a2.546,2.546,0,0,0-2.609,2.477v.009a2.546,2.546,0,0,0,2.609,2.477H690a2.545,2.545,0,0,0,2.609-2.477v-.009A2.546,2.546,0,0,0,690,584.886Z" transform="translate(46.294 7.102)" fill="#fff"/>
      <path id="Path_227" data-name="Path 227" d="M753.777,562.362c0-1.289,2.33-2.495,2.407-3.765s-2.07-2.742-1.925-4.012,2.619-2.212,2.888-3.464-1.7-2.961-1.386-4.195,2.888-1.892,3.283-3.107-1.319-3.135-.847-4.332,3.1-1.545,3.658-2.742-.963-3.263-.289-4.387,3.283-1.179,3.976-2.266-.491-3.345.279-4.4,3.4-.8,4.226-1.828-.058-3.372.838-4.323,3.476-.4,4.429-1.307.366-3.354,1.367-4.2,3.5,0,4.563-.786.78-3.29,1.925-4.021,3.476.4,4.631-.256,1.194-3.18,2.388-3.775,3.4.8,4.631.265,1.589-3.007,2.888-3.464,3.264,1.179,4.554.8,1.925-2.806,3.273-3.107,3.1,1.545,4.429,1.316,2.3-2.559,3.649-2.742,2.888,1.892,4.217,1.828,2.619-2.285,3.966-2.285,2.628,2.2,3.967,2.285,2.888-1.974,4.226-1.828,2.33,2.486,3.649,2.742,3.119-1.618,4.419-1.316,1.993,2.742,3.273,3.117,3.312-1.252,4.563-.8,1.627,2.943,2.888,3.473,3.437-.868,4.631-.274,1.232,3.116,2.388,3.775,3.523-.466,4.621.265.838,3.226,1.926,4.012,3.553-.055,4.563.8.414,3.3,1.367,4.195,3.533.347,4.428,1.307,0,3.327.828,4.332,3.466.74,4.236,1.828-.424,3.3.279,4.4,3.341,1.133,3.967,2.267-.838,3.226-.279,4.4,3.177,1.508,3.649,2.742-1.242,3.1-.838,4.323,2.955,1.828,3.283,3.107-1.637,2.943-1.4,4.2,2.7,2.184,2.888,3.464-1.993,2.742-1.925,4,2.407,2.477,2.407,3.766-2.32,2.495-2.407,3.765,2.08,2.742,1.925,4.012-2.619,2.212-2.888,3.464,1.714,2.961,1.4,4.2-2.888,1.892-3.283,3.107,1.319,3.135.838,4.332-3.1,1.545-3.649,2.742.905,3.263.279,4.387-3.273,1.179-3.976,2.276.491,3.336-.27,4.387-3.408.8-4.236,1.828.058,3.372-.828,4.332-3.475.393-4.428,1.3-.366,3.354-1.377,4.2-3.495,0-4.554.786-.789,3.29-1.926,4.021-3.475-.4-4.631.256-1.194,3.181-2.388,3.775-3.4-.8-4.621-.265-1.6,3.016-2.888,3.464-3.264-1.179-4.554-.8-1.925,2.806-3.273,3.107-3.09-1.545-4.419-1.316-2.311,2.559-3.649,2.742-2.888-1.892-4.226-1.828-2.609,2.285-3.967,2.285-2.628-2.2-3.966-2.285-2.888,1.974-4.217,1.828-2.339-2.486-3.649-2.742-3.129,1.627-4.429,1.316-1.993-2.742-3.273-3.107-3.3,1.252-4.554.8-1.637-2.943-2.888-3.464-3.437.859-4.621.265-1.242-3.107-2.388-3.775-3.524.466-4.631-.265-.838-3.226-1.925-4.012-3.552.055-4.554-.786-.424-3.308-1.377-4.2-3.533-.347-4.429-1.307,0-3.327-.828-4.332-3.466-.74-4.226-1.828.414-3.3-.279-4.4-3.35-1.133-3.976-2.267.838-3.226.289-4.387-3.177-1.517-3.658-2.742,1.242-3.1.847-4.323-2.965-1.828-3.283-3.107,1.627-2.934,1.386-4.2-2.7-2.184-2.888-3.455,1.993-2.742,1.925-4.012S753.777,563.651,753.777,562.362Z" transform="translate(88.214 -13.045)"/>
      <path id="Path_228" data-name="Path 228" d="M785.864,608.008,769.787,646.95c9.714,13.837,56,8.079,68.354-9.212L853.015,604.9l-3.427-.914a7.894,7.894,0,0,1-4.15-2.577,7.2,7.2,0,0,1-1.685-4.423L840.49,560.52l-40.647-5.182-1.319,29.822-.683,14.833a7.363,7.363,0,0,1-1.858,4.041,7.979,7.979,0,0,1-3.918,2.357Z" transform="translate(92.971 0.266)" fill="#956363"/>
      <path id="Path_229" data-name="Path 229" d="M806.833,600.609l2.128.064a29.154,29.154,0,0,0,10.715-1.694,28.141,28.141,0,0,0,9.214-5.46,26.557,26.557,0,0,0,6.306-8.391,25.367,25.367,0,0,0,2.445-10.045l1.213-37.06a8.379,8.379,0,0,0-.6-3.393,8.616,8.616,0,0,0-1.916-2.918,9.362,9.362,0,0,0-2.946-2,9.726,9.726,0,0,0-3.533-.774l-36.439-1.069a12.464,12.464,0,0,0-8.636,3.1,11.226,11.226,0,0,0-3.793,7.986l-1.117,34.419a25.249,25.249,0,0,0,1.781,10.172,26.357,26.357,0,0,0,5.748,8.749,27.977,27.977,0,0,0,8.848,5.992,29.057,29.057,0,0,0,10.58,2.322Z" transform="translate(95.964 -6.09)" fill="#956363"/>
      <path id="Path_230" data-name="Path 230" d="M803.166,557.968a2.874,2.874,0,1,0-3.023-2.87A2.952,2.952,0,0,0,803.166,557.968Z" transform="translate(101.99 -0.453)"/>
      <path id="Path_231" data-name="Path 231" d="M801.28,555.743a.622.622,0,1,0,0-1.243.622.622,0,1,0,0,1.243Z" transform="translate(102.133 0.072)" fill="#fff"/>
      <path id="Path_232" data-name="Path 232" d="M785.219,557.694a2.874,2.874,0,1,0-3.023-2.87A2.946,2.946,0,0,0,785.219,557.694Z" transform="translate(96.658 -0.517)"/>
      <path id="Path_233" data-name="Path 233" d="M783.5,555.565a.622.622,0,1,0,0-1.243.622.622,0,1,0,0,1.243Z" transform="translate(96.85 0.031)" fill="#fff"/>
      <g id="Group_69" data-name="Group 69" transform="translate(889.543 563.997)" opacity="0.3">
        <path id="Path_234" data-name="Path 234" d="M793.8,568.988l4.082.247a.888.888,0,0,0,.337-.042.834.834,0,0,0,.3-.163.817.817,0,0,0,.212-.258.889.889,0,0,0,.087-.314.742.742,0,0,0-.048-.322.685.685,0,0,0-.164-.282.89.89,0,0,0-.279-.2.862.862,0,0,0-.327-.085l-4.082-.247a1.893,1.893,0,0,1-1.232-.609,1.693,1.693,0,0,1,.173-2.437,1.9,1.9,0,0,1,1.3-.453.9.9,0,0,0,.635-.2.84.84,0,0,0,.3-.572.787.787,0,0,0-.212-.6.91.91,0,0,0-.607-.282,3.813,3.813,0,0,0-1.4.175,3.691,3.691,0,0,0-1.213.667,3.3,3.3,0,0,0-.337,4.827A3.689,3.689,0,0,0,793.8,568.988Z" transform="translate(-790.437 -562.154)" opacity="0.3"/>
      </g>
      <path id="Path_235" data-name="Path 235" d="M823.174,571.459s13.18,1.91,16.935-10.355-12.333-15.665-15.6-3.29l-2.83,13.554Z" transform="translate(108.39 -0.957)" fill="#956363"/>
      <path id="Path_236" data-name="Path 236" d="M835.277,553.667a5.306,5.306,0,0,0-1.829-1.03,5.515,5.515,0,0,0-2.118-.25,5.21,5.21,0,0,0-1.935.763,4.95,4.95,0,0,0-1.454,1.439,9.6,9.6,0,0,0-1.877,4.743l-.164,1.344c-.144.987,1.646,1.407,1.762.256l.2-1.453a9.341,9.341,0,0,1,1.483-3.939,2.8,2.8,0,0,1,.915-1.042,2.962,2.962,0,0,1,1.319-.5,3.025,3.025,0,0,1,1.415.163,2.859,2.859,0,0,1,1.165.786.884.884,0,0,0,.635.176.842.842,0,0,0,.318-.1.761.761,0,0,0,.26-.208.79.79,0,0,0-.1-1.152Z" transform="translate(109.64 -0.42)" opacity="0.3"/>
      <path id="Path_237" data-name="Path 237" d="M814.471,546.874a12.649,12.649,0,0,0-6.45,1.321,11.832,11.832,0,0,0-4.756,4.337,11.688,11.688,0,0,0-7.49,0,11.9,11.9,0,0,0-3.976-3.412,12.551,12.551,0,0,0-5.131-1.45,13.524,13.524,0,0,0-1.492,0,12.253,12.253,0,0,0-2.821.475,11.169,11.169,0,0,0-2.291.914,11.8,11.8,0,0,0-4.8,4.575,10.984,10.984,0,0,0,.953,12.359,12.053,12.053,0,0,0,5.449,3.867h0a12.506,12.506,0,0,0,3.427.7h.077a12.516,12.516,0,0,0,8.713-2.859,11.3,11.3,0,0,0,4.063-7.853,10.82,10.82,0,0,0-1.377-6.068,10.373,10.373,0,0,1,5.988,0,10.914,10.914,0,0,0-.963,3.72.25.25,0,0,0,0,.119,11.121,11.121,0,0,0,2.773,7.917,12.25,12.25,0,0,0,7.692,4.043,12.583,12.583,0,0,0,8.54-1.969,11.487,11.487,0,0,0,4.881-6.939,10.912,10.912,0,0,0,.241-1.673,11.129,11.129,0,0,0-2.994-8.26,12.349,12.349,0,0,0-8.251-3.868Zm-18.051,12.914a9.859,9.859,0,0,1-3.581,6.869,10.935,10.935,0,0,1-7.634,2.481h0a10.752,10.752,0,0,1-3.475-.8,10.231,10.231,0,0,1-5.613-5.647,9.585,9.585,0,0,1-.318-6.1,9.941,9.941,0,0,1,3.456-5.147,10.894,10.894,0,0,1,5.95-2.3,11.834,11.834,0,0,1,1.4,0,10.8,10.8,0,0,1,7.211,3.4,9.765,9.765,0,0,1,2.609,7.237ZM813,568.315a10.833,10.833,0,0,1-7.182-3.307,9.793,9.793,0,0,1-2.705-7.121h0a.767.767,0,0,1,0-.21,9.925,9.925,0,0,1,3.822-6.35,11.01,11.01,0,0,1,14.326.888,9.833,9.833,0,0,1,2.917,6.769,9.545,9.545,0,0,1-.241,1.563,10.05,10.05,0,0,1-3.976,5.781A10.983,10.983,0,0,1,813,568.315Z" transform="translate(94.161 -1.698)" fill="#fff"/>
      <path id="Path_238" data-name="Path 238" d="M826.445,567.016A2.517,2.517,0,1,0,823.8,564.5,2.583,2.583,0,0,0,826.445,567.016Z" transform="translate(109.018 1.805)" fill="#fff"/>
      <path id="Path_239" data-name="Path 239" d="M825.176,566.461a2.981,2.981,0,0,0,2.07-.679,2.711,2.711,0,0,0,.972-1.862,2.554,2.554,0,0,0-.347-1.471,2.463,2.463,0,0,1,.9,1.306,2.4,2.4,0,0,1-.087,1.556,2.5,2.5,0,0,1-1.049,1.2,2.737,2.737,0,0,1-1.589.385,2.637,2.637,0,0,1-1.473-.548A3.356,3.356,0,0,0,825.176,566.461Z" transform="translate(109.247 1.911)" opacity="0.15"/>
      <path id="Path_240" data-name="Path 240" d="M825.827,567.51h-4.294l4.891,8.134Z" transform="translate(108.345 3.082)" opacity="0.15"/>
      <path id="Path_241" data-name="Path 241" d="M822.188,584.379a34.437,34.437,0,0,1-12.747,4.049,25.139,25.139,0,0,1-14.576,4.908,9.625,9.625,0,0,1-3.466-.466l.366-7.851.789.32c3.524,1.38,7.24,1.663,11.38,1.828,1.117.037,2.243.019,3.36-.055a5.818,5.818,0,0,0,1.271-.091,1.018,1.018,0,0,0,.279,0c.674-.073,1.319-.174,1.925-.274l.78-.146a31.777,31.777,0,0,0,9.8-3.482.8.8,0,0,1,.3-.1.847.847,0,0,1,.318.016.7.7,0,0,1,.279.133.682.682,0,0,1,.27.771.756.756,0,0,1-.327.444Z" transform="translate(99.392 6.667)" opacity="0.25"/>
      <path id="Path_242" data-name="Path 242" d="M791.445,571.41a.537.537,0,0,0-.26.07.478.478,0,0,0-.193.67,8.309,8.309,0,0,0,3.206,3.37,8.956,8.956,0,0,0,9.185-.109,8.247,8.247,0,0,0,3.119-3.445.547.547,0,0,0,.058-.246.535.535,0,0,0-.077-.241.553.553,0,0,0-.193-.177.538.538,0,0,0-.25-.067Z" transform="translate(99.251 3.944)" fill="#fff"/>
      <path id="Path_243" data-name="Path 243" d="M650.645,597.637a2.506,2.506,0,0,1,1.69.286,2.3,2.3,0,0,1,1.054,1.286l4.149,13.051a2.345,2.345,0,0,0,.812,1.153,2.543,2.543,0,0,0,1.355.519l29.3,2.331a14.986,14.986,0,0,1,8.174,3.206,13.762,13.762,0,0,1,4.716,7.1l3.379,12.1-23.52,8.509-2.484-7.787a3.535,3.535,0,0,0-1.04-1.572,3.811,3.811,0,0,0-1.733-.859l-20.14-4.122a9.9,9.9,0,0,1-5.873-3.656l-19.669-25.151a2.156,2.156,0,0,1-.378-.781,2.1,2.1,0,0,1-.034-.858,2.126,2.126,0,0,1,.316-.8,2.241,2.241,0,0,1,.616-.628h0a2.4,2.4,0,0,1,1.576-.408,2.357,2.357,0,0,1,1.466.683l8.665,8.883-4.814-14.312a2.2,2.2,0,0,1-.091-.9,2.235,2.235,0,0,1,.278-.86,2.314,2.314,0,0,1,.6-.693,2.462,2.462,0,0,1,.837-.421h0a2.565,2.565,0,0,1,1.7.135,2.377,2.377,0,0,1,1.192,1.153l9.079,20-3.071-13.846a2.163,2.163,0,0,1-.021-.909,2.226,2.226,0,0,1,.355-.845,2.337,2.337,0,0,1,.675-.644,2.459,2.459,0,0,1,.888-.343Z" transform="translate(51.548 8.946)" fill="#956363"/>
      <g id="Group_70" data-name="Group 70" transform="translate(692.867 617.453)" opacity="0.15">
        <path id="Path_244" data-name="Path 244" d="M641.135,612.062a.753.753,0,0,1-.43-.133.691.691,0,0,1-.263-.351l-1.617-5.191a.661.661,0,0,1,.09-.488.722.722,0,0,1,.411-.3.758.758,0,0,1,.519.038.7.7,0,0,1,.357.36l1.617,5.191a.648.648,0,0,1,.029.265.633.633,0,0,1-.082.255.681.681,0,0,1-.179.206.733.733,0,0,1-.249.124.839.839,0,0,1-.2.027Z" transform="translate(-638.811 -605.566)" opacity="0.15"/>
      </g>
      <path id="Path_245" data-name="Path 245" d="M822.227,780.193a156.6,156.6,0,0,1-53.519-14.623l2.2-28.423.915-11.881-4.871,5.648-19.4,22.391-18.205,21.02a22,22,0,0,1-2.33,2.331c-.327.283-.655.557-.963.823l-.51.375a22.128,22.128,0,0,1-3.745,2.221,23.3,23.3,0,0,1-10.687,2.111c-.5,0-.963-.046-1.511-.091a2.34,2.34,0,0,1-.751-.082,5.325,5.325,0,0,0-.751-.11,23.011,23.011,0,0,1-12.571-6.041,21.067,21.067,0,0,1-6.356-11.936L668.69,642.016l.356-.091,16.473-4.232,7.817-2.038.857-.219,25.426,78.507,17.637-28.076.635-1.033,7.24-11.516L757.6,653.449l24.934-39.71a26.8,26.8,0,0,1,7.529-7.822,28.35,28.35,0,0,1,10.186-4.342l16.087-3.4,1.81-.375,1.434-.311-10.966,21.221-6.248,21.13-2.407,8.143,8.164,48.521,5.776,34.263,3.755,22.327Z" transform="translate(62.933 10.018)" fill="#bfd8ef"/>
      <path id="Path_246" data-name="Path 246" d="M768.822,682.707a1.739,1.739,0,0,0-.308-1.122,1.875,1.875,0,0,0-.953-.723,2.03,2.03,0,0,0-1.223-.032,1.909,1.909,0,0,0-.992.671l-48.408,66.086a23.086,23.086,0,0,1-14.407,7.724,23.729,23.729,0,0,1-16.111-3.574c7.307,12.74,26.957,15.665,37.653,3.281L766.541,706Z" transform="translate(68.201 29.281)" opacity="0.06"/>
      <path id="Path_247" data-name="Path 247" d="M874.984,600.557v.1l-.655,4.816L871.2,628.386l-5.131,37.471-4.814,35.387-10.282,75.208a156.685,156.685,0,0,1-20.583,3.839,161,161,0,0,1-18.889,1.115q-7.293,0-14.441-.649a156.949,156.949,0,0,1-35.41-7.312l1.271-16.734,1.926-25.864.963-12.795a21.312,21.312,0,0,0-2.07-10.857l-6.113-12.649a42.02,42.02,0,0,1,.963-38.495l27.746-46.556,6.633-11.132.067-.119v-.073l2.609-.658,1.107-.283c-.077.119-.3.466-.626,1.014-3.466,5.868-19.1,34.282.645,38.742,19.4,4.378,49.2-11.881,58.246-42.041v-.091l4.178,1.188,11.014,3.117Z" transform="translate(88.109 9.408)"/>
      <path id="Path_248" data-name="Path 248" d="M707.953,697.309l.684,15.409,16.944-43.494Z" transform="translate(74.599 26.614)" opacity="0.06"/>
      <path id="Path_249" data-name="Path 249" d="M847.142,527.4c-6.585-5.94-15-9.313-23.664-11.515-9.185-2.34-19.13-4.14-28.574-2.458-6.1,1.088-11.947,3.062-17.888,4.734.106,1.188-.809,2.888-.231,3.829.674,1.106,3.312,1.042,4.053,2.1s-.337,3.345.472,4.359,3.427.649,4.294,1.618.1,3.363,1.02,4.277,3.485.256,4.477,1.115.51,3.327,1.55,4.122,3.485-.137,4.583.6.963,3.244,2.06,3.921,3.447-.539,4.621.073,1.338,3.107,2.551,3.656,3.341-.914,4.592-.457,1.714,2.943,2.994,3.345,3.206-1.307,4.5-.978,2.08,2.742,3.4,2.97,3.013-1.663,4.342-1.49,2.417,2.458,3.755,2.559,2.782-2,4.121-1.983,2.705,2.166,4.053,2.111,2.5-2.3,3.851-2.44,2.956,1.828,4.294,1.636,2.2-2.577,3.5-2.851,3.187,1.481,4.467,1.133,1.858-2.806,3.119-3.235c.963-.311,2.253.411,3.389.649C857.838,540.849,853.66,533.291,847.142,527.4Z" transform="translate(94.993 -9.582)"/>
      <path id="Path_250" data-name="Path 250" d="M823.869,542.246h-.01a2.667,2.667,0,0,0-2.734,2.6V558.35a2.666,2.666,0,0,0,2.734,2.6h.01a2.666,2.666,0,0,0,2.734-2.6V544.842A2.667,2.667,0,0,0,823.869,542.246Z" transform="translate(108.224 -2.763)"/>
      <path id="Path_251" data-name="Path 251" d="M897.117,644.248l-16.906,111.28A154.523,154.523,0,0,1,860.86,766.4,156.46,156.46,0,0,1,812.724,780.1c2.031-22.455,4.169-42.516,6.344-60.319q2.181-17.923,4.361-32.9c2.262-15.674,4.486-29.036,6.566-40.314,5.854-31.878,10.513-47.031,11.553-50.266.039-.136.077-.271.125-.4a1.506,1.506,0,0,0,.068-.2h0l10.927,3.363,4.66,1.426,12.082,3.729,1.752.53A37.852,37.852,0,0,1,891.735,620a34.665,34.665,0,0,1,5.382,24.247Z" transform="translate(105.728 9.604)" fill="#bfd8ef"/>
      <path id="Path_252" data-name="Path 252" d="M702.678,588.309a2.183,2.183,0,0,0-.087,3.043l9.271,10.346a2.311,2.311,0,0,1,.577,1.277,2.271,2.271,0,0,1-.278,1.365l-13.8,24.676a13.224,13.224,0,0,0-1.571,8.234,13.533,13.533,0,0,0,3.718,7.587l8.886,9.258,20.218-14.166-5.545-6.2a3.453,3.453,0,0,1-.832-1.685,3.357,3.357,0,0,1,.187-1.852l7.288-18.26a8.887,8.887,0,0,0,0-6.653l-11.668-29.356a2.176,2.176,0,0,0-.485-.726,2.311,2.311,0,0,0-.742-.494,2.423,2.423,0,0,0-1.776-.032h0a2.261,2.261,0,0,0-1.209,1.034,2.085,2.085,0,0,0-.187,1.534l3.167,11.744-10.1-11.561a2.471,2.471,0,0,0-1.655-.794,2.506,2.506,0,0,0-1.763.547h0a2.265,2.265,0,0,0-.829,1.432,2.2,2.2,0,0,0,.386,1.593l12.795,18.077-10.532-10.053a2.413,2.413,0,0,0-.8-.492,2.525,2.525,0,0,0-1.866.045,2.408,2.408,0,0,0-.772.529Z" transform="translate(71.248 4.704)" fill="#956363"/>
      <g id="Group_71" data-name="Group 71" transform="translate(788 591.646)" opacity="0.15">
        <path id="Path_253" data-name="Path 253" d="M717.207,589.757a.656.656,0,0,0,.113-.416.668.668,0,0,0-.17-.4l-3.726-4.1a.738.738,0,0,0-.5-.231.751.751,0,0,0-.526.172.68.68,0,0,0-.244.474.671.671,0,0,0,.181.5l3.716,4.1a.748.748,0,0,0,.5.229.756.756,0,0,0,.524-.165.658.658,0,0,0,.135-.165Z" transform="translate(-712.153 -584.608)" opacity="0.15"/>
      </g>
      <path id="Path_254" data-name="Path 254" d="M927.68,644.086l-4.1,19.348L807.607,751.82a28.437,28.437,0,0,1-10.542,5,29.2,29.2,0,0,1-11.765.407,28.683,28.683,0,0,1-10.9-4.257,27.059,27.059,0,0,1-8.058-8.157c-23.278-36.868-63.135-100.048-63.54-101.053-.183-.5,2.224-2.742,5.43-5.365l.087-.073c5.911-4.88,14.441-11.223,14.441-11.223l70.568,71.835,94.194-73.379,14.566-22.985A37.789,37.789,0,0,1,923.2,618.685a34.6,34.6,0,0,1,4.477,25.364Z" transform="translate(73.066 11.193)" fill="#bfd8ef"/>
      <path id="Path_255" data-name="Path 255" d="M929.77,644.236l-16.906,111.28a154.406,154.406,0,0,1-19.351,10.867l22.143-86.247a.176.176,0,0,1,0-.1,3.732,3.732,0,0,0-.2-2.375,3.922,3.922,0,0,0-1.608-1.823,4.3,4.3,0,0,0-2.436-.591,4.216,4.216,0,0,0-2.339.86l-32.829,25.014L851.721,719.8,807.6,753.424l-.087.064a28.43,28.43,0,0,1-10.532,4.955,29.228,29.228,0,0,1-11.745.379,28.576,28.576,0,0,1-10.86-4.263,26.908,26.908,0,0,1-8.039-8.145l-5.574-8.847-3.957-6.251-8.511-13.49c-6.912-10.967-14.037-22.263-20.545-32.6-13.758-21.843-24.723-39.3-24.925-39.866a1.291,1.291,0,0,1,.356-.722A43.036,43.036,0,0,1,708.244,640l.1-.082,4.458,5.639,22.191,28.149L758.634,703.7l4.611,5.849,16.665,21.112.645.813a13.735,13.735,0,0,0,4.313,3.6,14.513,14.513,0,0,0,5.478,1.649,14.659,14.659,0,0,0,5.709-.581,14.12,14.12,0,0,0,4.987-2.713l2.705-2.294,52.325-44.289L881.1,665.686l19.149-16.231a24.156,24.156,0,0,0-2.176-38.961c-.347-.238-.693-.457-1.049-.676l-.3-.174-7.394-4.378-15.144-8.957H874.1c.068-.146.125-.274.173-.366a.756.756,0,0,1,.106-.192h0l10.927,3.363,4.66,1.426,12.082,3.729,1.752.53a37.88,37.88,0,0,1,20.555,15.226,34.681,34.681,0,0,1,5.41,24.21Z" transform="translate(73.075 9.616)" opacity="0.06"/>
      <path id="Path_256" data-name="Path 256" d="M492.1,442.124a173.6,173.6,0,0,1-27.338,93.339,186.381,186.381,0,0,1-74.25,66.462q-4.737,2.376-9.627,4.487c-.491.22-.963.43-1.473.631q-7.7,3.281-15.77,5.9Q357,615.1,350.163,616.812a200.079,200.079,0,0,1-48.224,5.849,202.714,202.714,0,0,1-21.844-1.17,195.165,195.165,0,0,1-105.707-45.464C145,550.8,124.63,517.488,116.131,480.746h0a172.976,172.976,0,0,1,22.742-131.4c24.918-39.458,64.745-68.413,111.368-80.967,2.349-.64,4.727-1.225,7.124-1.773q5.912-1.343,11.967-2.34l1.126-.183,2.667-.4c3.312-.475,6.662-.914,10.022-1.188,1.309-.128,2.628-.229,3.947-.329l1.839-.128c2.975-.183,5.979-.32,8.992-.375h6.344c2.012,0,4.024.073,6.027.146l1.848.091c.963.046,2.012.11,3.013.174l1.868.128q3.072.229,6.123.548l.414.046c1.762.192,3.533.4,5.276.64s3.475.493,5.2.777q1.848.284,3.7.631c.616.1,1.223.219,1.829.338,43.053,8.211,81.778,30.328,109.588,62.588S492.139,400.438,492.1,442.124Z" transform="translate(-102.536 -67.679)" fill="#bfd8ef"/>
      <path id="Path_257" data-name="Path 257" d="M165.032,625.448l13.161,23.634c.866,1.563-.414,2.861-2.262,2.285l-.626-.192a20.16,20.16,0,0,1-9.069-5.895l-11.408-13.142Z" transform="translate(-89.744 16.487)" fill="#fc9d9d"/>
      <path id="Path_258" data-name="Path 258" d="M165.032,625.448l13.161,23.634c.866,1.563-.414,2.861-2.262,2.285l-.626-.192a20.16,20.16,0,0,1-9.069-5.895l-11.408-13.142Z" transform="translate(-89.744 16.487)" opacity="0.15"/>
      <path id="Path_259" data-name="Path 259" d="M431.53,322.214l8.857-15.327,17.965-13.06a2.588,2.588,0,0,1,1.093-.531,2.654,2.654,0,0,1,1.227.022,2.564,2.564,0,0,1,1.072.569,2.384,2.384,0,0,1,.661.982h0a2.993,2.993,0,0,1-.007,1.823,3.136,3.136,0,0,1-1.072,1.513l-15.49,13.709-4.265,12.32,4.265-12.3,14.855-10.967a2.3,2.3,0,0,1,.884-.438,2.365,2.365,0,0,1,1-.034,2.311,2.311,0,0,1,.914.378,2.166,2.166,0,0,1,.653.715h0a2.608,2.608,0,0,1,.08,1.694,2.732,2.732,0,0,1-.985,1.414l-13.6,12.018-6.412,17.73,6.412-17.73,11.938-6.964a1.53,1.53,0,0,1,.639-.195,1.547,1.547,0,0,1,.664.092,1.49,1.49,0,0,1,.554.361,1.391,1.391,0,0,1,.328.555,1.836,1.836,0,0,1-.084,1.162,1.949,1.949,0,0,1-.773.9l-11.842,9.514-7.018,16.076Z" transform="translate(-7.531 -60.373)" fill="#fc9d9d"/>
      <path id="Path_260" data-name="Path 260" d="M431.53,322.214l8.857-15.327,17.965-13.06a2.588,2.588,0,0,1,1.093-.531,2.654,2.654,0,0,1,1.227.022,2.564,2.564,0,0,1,1.072.569,2.384,2.384,0,0,1,.661.982h0a2.993,2.993,0,0,1-.007,1.823,3.136,3.136,0,0,1-1.072,1.513l-15.49,13.709-4.265,12.32,4.265-12.3,14.855-10.967a2.3,2.3,0,0,1,.884-.438,2.365,2.365,0,0,1,1-.034,2.311,2.311,0,0,1,.914.378,2.166,2.166,0,0,1,.653.715h0a2.608,2.608,0,0,1,.08,1.694,2.732,2.732,0,0,1-.985,1.414l-13.6,12.018-6.412,17.73,6.412-17.73,11.938-6.964a1.53,1.53,0,0,1,.639-.195,1.547,1.547,0,0,1,.664.092,1.49,1.49,0,0,1,.554.361,1.391,1.391,0,0,1,.328.555,1.836,1.836,0,0,1-.084,1.162,1.949,1.949,0,0,1-.773.9l-11.842,9.514-7.018,16.076Z" transform="translate(-7.531 -60.373)" fill="#fc9d9d"/>
      <path id="Path_261" data-name="Path 261" d="M431.53,322.214l8.857-15.327,17.965-13.06a2.588,2.588,0,0,1,1.093-.531,2.654,2.654,0,0,1,1.227.022,2.564,2.564,0,0,1,1.072.569,2.384,2.384,0,0,1,.661.982h0a2.993,2.993,0,0,1-.007,1.823,3.136,3.136,0,0,1-1.072,1.513l-15.49,13.709-4.265,12.32,4.265-12.3,14.855-10.967a2.3,2.3,0,0,1,.884-.438,2.365,2.365,0,0,1,1-.034,2.311,2.311,0,0,1,.914.378,2.166,2.166,0,0,1,.653.715h0a2.608,2.608,0,0,1,.08,1.694,2.732,2.732,0,0,1-.985,1.414l-13.6,12.018-6.412,17.73,6.412-17.73,11.938-6.964a1.53,1.53,0,0,1,.639-.195,1.547,1.547,0,0,1,.664.092,1.49,1.49,0,0,1,.554.361,1.391,1.391,0,0,1,.328.555,1.836,1.836,0,0,1-.084,1.162,1.949,1.949,0,0,1-.773.9l-11.842,9.514-7.018,16.076Z" transform="translate(-7.531 -60.373)" opacity="0.15"/>
      <path id="Path_262" data-name="Path 262" d="M436.423,319.445l-3.37,29.246a10.937,10.937,0,0,1-1.82,4.771l-29.749,42.333L431.658,409.5l18.552-37.526a10.269,10.269,0,0,1,2.58-3.354l1.8-1.59c7.48-5.8,12.073-13.435,12.949-22.062l.087-.119a8.587,8.587,0,0,1,1.175-3.446c2.4-3.839,8.125-13.17,8.125-13.17a1.115,1.115,0,0,0,.2-.407,1.092,1.092,0,0,0,.022-.45,1.106,1.106,0,0,0-.163-.422,1.156,1.156,0,0,0-.321-.33h0c-2.311-1.609-5.776-1.2-8.222,1.2l-5.584,5.484c-2.984,2.888-7.577,2.532-9.184-.713l-6.576-14a3.39,3.39,0,0,1,0-2.87l10.821-25.855a1.936,1.936,0,0,0,.163-1.541,2.055,2.055,0,0,0-1.029-1.2,2.918,2.918,0,0,0-2.051-.053,2.739,2.739,0,0,0-1.531,1.3c-3.553,6.05-14.037,24.676-16.367,29.118a2.781,2.781,0,0,0-.684,1.956Z" transform="translate(-16.458 -61.836)" fill="#ffb6b6"/>
      <path id="Path_263" data-name="Path 263" d="M402.584,382.842l16.54,3.939c5.68,1.115,10.474,0,13.141-4.926l12.217-22.574a12.316,12.316,0,0,1,4-4.679c4.679-3.144,14.374-10.592,18.725-21.066a.472.472,0,0,1-.018.231.5.5,0,0,1-.126.2l-.087.119c-.876,8.628-5.468,16.268-12.949,22.071l-1.771,1.59a10.2,10.2,0,0,0-2.59,3.345l-18.292,37.7-.241-.165Z" transform="translate(-16.131 -51.05)" opacity="0.15"/>
      <path id="Path_264" data-name="Path 264" d="M300.2,216.972a20.734,20.734,0,0,0-9.974,2.139,5.923,5.923,0,0,1-3.68.441,5.712,5.712,0,0,1-3.175-1.821,33.273,33.273,0,0,0-16.316-9.657,34.656,34.656,0,0,0-19.217.626,32.958,32.958,0,0,0-15.582,10.694,30.358,30.358,0,0,0-6.649,17.127,5.211,5.211,0,0,1-.62,2.2,5.5,5.5,0,0,1-1.517,1.766,23.12,23.12,0,0,0-7.182,9.011c-5.776,12.567-.8,38.7,22.143,45.642,11.813,3.592,15.664-10.638,13.931-26.083a34.563,34.563,0,0,0,21.068-2.851,32.14,32.14,0,0,0,14.852-14.468,20.925,20.925,0,0,0,21.017.8,19.531,19.531,0,0,0,7.7-7.371,18.222,18.222,0,0,0,2.469-10.11A18.773,18.773,0,0,0,313.5,222.5,20.748,20.748,0,0,0,300.2,216.972Z" transform="translate(-72.138 -80.322)" fill="#21252b"/>
      <path id="Path_265" data-name="Path 265" d="M158.63,563.337l6.123,47.469a7.911,7.911,0,0,0,.414,1.691l10.07,28.213a24.148,24.148,0,0,1,1.377,9.139l-1.56,36.612a2.981,2.981,0,0,1-.932,2.035,3.3,3.3,0,0,1-2.139.9h0a3.32,3.32,0,0,1-2.3-.791,2.994,2.994,0,0,1-1.049-2.1l-1.993-33.925-7.038,34.9a3.233,3.233,0,0,1-1.377,2.031,3.562,3.562,0,0,1-2.474.565h0a3.466,3.466,0,0,1-2.144-1.176,3.138,3.138,0,0,1-.744-2.242l2.32-34.181-2.118,30.836a3.122,3.122,0,0,1-1.042,2.114,3.511,3.511,0,0,1-4.633,0,3.113,3.113,0,0,1-1.046-2.182l-1.415-30.324,1.213,26.148a2.534,2.534,0,0,1-.676,1.856,2.809,2.809,0,0,1-1.847.885h0a2.852,2.852,0,0,1-1.995-.595,2.578,2.578,0,0,1-.98-1.754l-7.317-68.344-12.14-49.91Z" transform="translate(-99.738 1.626)" fill="#ffb6b6"/>
      <path id="Path_266" data-name="Path 266" d="M145.764,665.772l1.974-28.679" transform="translate(-92.437 19.181)" fill="none" stroke="#000" stroke-linecap="round" stroke-miterlimit="10" stroke-width="1.715" opacity="0.15"/>
      <path id="Path_267" data-name="Path 267" d="M139.492,635.706l1.213,26.148" transform="translate(-94.3 18.86)" fill="none" stroke="#000" stroke-linecap="round" stroke-miterlimit="10" stroke-width="1.715" opacity="0.15"/>
      <path id="Path_268" data-name="Path 268" d="M350.262,596.131q-7.7,3.281-15.77,5.9-6.643,2.156-13.478,3.866a200.185,200.185,0,0,1-48.224,5.849,202.732,202.732,0,0,1-21.844-1.17,197.962,197.962,0,0,1-41.041-8.929c15.038-138.232,18.754-258.642,8.106-288.235l15.182-3.857,2.888-.731,59.141.5h.607l7.529,2.532v.055c1.261,23.305,22.509,143.112,41.4,252.437C346.652,575.092,348.481,585.712,350.262,596.131Z" transform="translate(-73.38 -56.766)" fill="#fff"/>
      <path id="Path_269" data-name="Path 269" d="M339.946,339.421l40.984,92.746,74.3-88.715L480.515,366.1l-75.594,122.01c-12.015,19.4-41.85,18.571-52.662-1.453l-43.7-81.011Z" transform="translate(-44.067 -49.688)" fill="#21252b"/>
      <path id="Path_270" data-name="Path 270" d="M288.815,257.417s-52.363-31.2-54.346,6.918l-.722,9.907-3.658,49.937a5.256,5.256,0,0,0,1.4,3.775l30.249,19.631a2.559,2.559,0,0,0,2.984-.155l22.48-18.2a5.846,5.846,0,0,0,1.7-2.254,5.552,5.552,0,0,0,.407-2.745L285.927,294.6A41.35,41.35,0,0,0,287,285.777C287.342,270.916,288.815,257.417,288.815,257.417Z" transform="translate(-67.384 -71.442)" fill="#ffb6b6"/>
      <path id="Path_271" data-name="Path 271" d="M293.552,233.558s18.542,74.028-21.459,79.009c-34.659,4.341-38.509-46.866-38.509-46.866l1.656-33.285Z" transform="translate(-66.344 -74.444)" fill="#ffb6b6"/>
      <path id="Path_272" data-name="Path 272" d="M232.871,271.059s3.312.274,5.083-1.124l-5.613,8.225Z" transform="translate(-66.713 -65.764)" opacity="0.15"/>
      <path id="Path_273" data-name="Path 273" d="M237.813,255.681s-2.609-6.955-10.215-3.765c-8.665,3.656-6.951,22.446,7.827,23.506,7.7.548,6.162-3.656,4.814-9.331Z" transform="translate(-69.681 -70.127)" fill="#ffb6b6"/>
      <path id="Path_274" data-name="Path 274" d="M226.155,255.938a5.576,5.576,0,0,1,2.012-.945,5.725,5.725,0,0,1,2.243-.1,5.437,5.437,0,0,1,1.973.95,5.132,5.132,0,0,1,1.4,1.628,9.775,9.775,0,0,1,1.463,5.118l.154,1.645a.851.851,0,0,1-.3.556.949.949,0,0,1-1.225,0,.851.851,0,0,1-.3-.556l-.144-1.636a9.808,9.808,0,0,0-1.2-4.259,2.947,2.947,0,0,0-.882-1.167,3.164,3.164,0,0,0-1.359-.629,3.239,3.239,0,0,0-1.511.059,3.127,3.127,0,0,0-1.3.732.945.945,0,0,1-.681.133.914.914,0,0,1-.581-.362.825.825,0,0,1-.141-.646.862.862,0,0,1,.381-.551Z" transform="translate(-68.669 -69.259)" opacity="0.3"/>
      <path id="Path_275" data-name="Path 275" d="M284.262,305.093l-1.338-11.881c-3.331,3.345-12.978,8.033-23.8,5.612a27.417,27.417,0,0,1-13.989-8.225.822.822,0,0,0-.25-.213.84.84,0,0,0-.319-.1.858.858,0,0,0-.334.03.837.837,0,0,0-.294.154.79.79,0,0,0-.2.254.747.747,0,0,0-.019.624.772.772,0,0,0,.187.264,29.67,29.67,0,0,0,18.408,9.432,29.736,29.736,0,0,0,10.546,4.123,30.391,30.391,0,0,0,11.4-.074Z" transform="translate(-63.351 -61.057)" opacity="0.15"/>
      <g id="Group_72" data-name="Group 72" transform="translate(202.784 221.068)" opacity="0.3">
        <path id="Path_276" data-name="Path 276" d="M267,285.661h-.125c-3.167.274-4.766.375-4.766.375a1.087,1.087,0,0,1-.762-.244.978.978,0,0,1-.359-.684.967.967,0,0,1,.257-.725,1.065,1.065,0,0,1,.72-.34s1.589-.11,4.727-.375a1.09,1.09,0,0,1,.781.186.988.988,0,0,1,.413.655.955.955,0,0,1-.2.74,1.061,1.061,0,0,1-.69.393Z" transform="translate(-260.986 -283.658)" opacity="0.3"/>
      </g>
      <g id="Group_73" data-name="Group 73" transform="translate(196.327 211.695)" opacity="0.3">
        <path id="Path_277" data-name="Path 277" d="M270.2,283.016c-8.761,1.225-12.679-3.29-14.046-5.538a.868.868,0,0,1-.116-.717.894.894,0,0,1,.173-.332.968.968,0,0,1,.3-.239,1,1,0,0,1,.368-.133,1.014,1.014,0,0,1,.393.018.994.994,0,0,1,.353.166.944.944,0,0,1,.253.286c1.338,2.2,5.613,6.955,16.193,3.656a1.055,1.055,0,0,1,.77.061.976.976,0,0,1,.5.56.921.921,0,0,1-.065.732,1,1,0,0,1-.59.474,28.431,28.431,0,0,1-4.486,1.005Z" transform="translate(-256.009 -276.045)" opacity="0.3"/>
      </g>
      <path id="Path_278" data-name="Path 278" d="M261.906,265.037a3.029,3.029,0,1,0-3.187-3.025A3.109,3.109,0,0,0,261.906,265.037Z" transform="translate(-58.876 -68.297)" fill="#21252b"/>
      <path id="Path_279" data-name="Path 279" d="M262.409,261.429a.65.65,0,1,0-.684-.649A.666.666,0,0,0,262.409,261.429Z" transform="translate(-57.983 -68.032)" fill="#fff"/>
      <path id="Path_280" data-name="Path 280" d="M281.436,265.075a3.029,3.029,0,1,0-3.187-3.025A3.109,3.109,0,0,0,281.436,265.075Z" transform="translate(-53.073 -68.288)" fill="#21252b"/>
      <path id="Path_281" data-name="Path 281" d="M281.939,261.465a.65.65,0,1,0-.683-.649A.666.666,0,0,0,281.939,261.465Z" transform="translate(-52.18 -68.024)" fill="#fff"/>
      <g id="Group_74" data-name="Group 74" transform="translate(207.278 204.07)" opacity="0.3">
        <path id="Path_282" data-name="Path 282" d="M270.052,277.019l-4.294.292a1.009,1.009,0,0,1-.861-.082.943.943,0,0,1-.309-.3.892.892,0,0,1-.135-.4.873.873,0,0,1,.071-.417.92.92,0,0,1,.26-.342.977.977,0,0,1,.395-.195,1.011,1.011,0,0,1,.444-.005l4.294-.3a2.009,2.009,0,0,0,.726-.192,1.941,1.941,0,0,0,.594-.44,1.816,1.816,0,0,0,.37-.623,1.727,1.727,0,0,0,.091-.709,1.76,1.76,0,0,0-.2-.689,1.846,1.846,0,0,0-.465-.564,1.961,1.961,0,0,0-.656-.352,2.027,2.027,0,0,0-.748-.086.979.979,0,0,1-.53-.292.9.9,0,0,1-.237-.537.875.875,0,0,1,.153-.564.95.95,0,0,1,.479-.362,3.916,3.916,0,0,1,2.652.931,3.538,3.538,0,0,1,1.242,2.412,3.49,3.49,0,0,1-.856,2.559,3.863,3.863,0,0,1-2.48,1.29Z" transform="translate(-264.451 -269.853)" opacity="0.3"/>
      </g>
      <path id="Path_283" data-name="Path 283" d="M300.077,259.433a4.3,4.3,0,0,0-1.369-3.106,4.769,4.769,0,0,0-3.281-1.28H251.535a4.823,4.823,0,0,0-2.823.922,4.413,4.413,0,0,0-1.654,2.359h0a4.442,4.442,0,0,0-.154,1.124v4.113a11.6,11.6,0,0,0,3.771,8.36,12.994,12.994,0,0,0,17.7-.2,11.57,11.57,0,0,0,3.56-8.443,4.517,4.517,0,0,0,0-.512v-3.391a4.134,4.134,0,0,0-.963-2.632h4.871a4.184,4.184,0,0,0-.963,2.641v4.076a11.546,11.546,0,0,0,2.206,6.047,12.44,12.44,0,0,0,5.179,4.1,13.055,13.055,0,0,0,14.027-2.477,11.636,11.636,0,0,0,3.658-8.426ZM259.488,273.1a11.058,11.058,0,0,1-7.322-2.741,9.994,9.994,0,0,1-3.384-6.746v-3.994a2.4,2.4,0,0,1,.25-1.069,2.678,2.678,0,0,1,1.017-1.141,2.878,2.878,0,0,1,1.506-.431h15.808a2.88,2.88,0,0,1,1.968.776,2.592,2.592,0,0,1,.824,1.865V263a3.058,3.058,0,0,1,0,.42,9.953,9.953,0,0,1-3.3,6.86,11.024,11.024,0,0,1-7.368,2.819Zm34.158-1.91a11.07,11.07,0,0,1-11.139.631,10.517,10.517,0,0,1-3.9-3.374,9.829,9.829,0,0,1-1.725-4.732,7.844,7.844,0,0,1-.048-.823V259.5a2.594,2.594,0,0,1,.817-1.868,2.877,2.877,0,0,1,1.965-.782h15.827a2.867,2.867,0,0,1,1.971.773,2.58,2.58,0,0,1,.821,1.868v3.382a10,10,0,0,1-.645,3.528,10.269,10.269,0,0,1-3.947,4.789Z" transform="translate(-62.386 -69.209)" fill="#21252b"/>
      <path id="Path_284" data-name="Path 284" d="M329.777,595.778q-7.7,3.281-15.77,5.9-6.643,2.156-13.478,3.866l-4.814-41.538C283.488,461.8,278.858,310.348,278.858,310.348L311.34,564.01h15.577l4.313,31.138C330.759,595.367,330.277,595.577,329.777,595.778Z" transform="translate(-52.893 -56.414)" opacity="0.15"/>
      <path id="Path_285" data-name="Path 285" d="M281.82,577.3a55.075,55.075,0,0,1-12.872,33.185,195.546,195.546,0,0,1-79.407-26.5l-1.434-146.147V437.4l-37.884-32.691-.963-44.591a34.974,34.974,0,0,1,8.211-23.2A38.409,38.409,0,0,1,179.375,324l71.839-14.577C261.256,337.314,286.835,448.786,281.82,577.3Z" transform="translate(-91.401 -56.629)" fill="#21252b"/>
      <path id="Path_286" data-name="Path 286" d="M352.969,365.495l-2.176,40.368-1.309,24.283-1.136,21.176-.866,16.771L340.887,590.66q-4.737,2.376-9.627,4.487c-.491.219-.963.43-1.473.631q-7.7,3.281-15.77,5.9c-18.369-117.961-33.744-265.424-35.13-291.333l4.034,1.225,41.7,12.667c9.531,2.9,18.937,11.214,24.174,21.934.51,1.042.963,2.111,1.406,3.2a39.165,39.165,0,0,1,2.773,16.122Z" transform="translate(-52.884 -56.414)" fill="#21252b"/>
      <path id="Path_287" data-name="Path 287" d="M356.442,464.013l-21.017-37.544,1.55-37.718a.978.978,0,0,0-.066-.4,1.017,1.017,0,0,0-.221-.344,1.1,1.1,0,0,0-.344-.238,1.147,1.147,0,0,0-.413-.094,1.124,1.124,0,0,0-.782.273,1.011,1.011,0,0,0-.35.718l-1.55,37.773a1.083,1.083,0,0,0-.106.411l-1.56,22.976,13.835,25.645c10.812,20.033,40.647,20.856,52.662,1.462l1.049-1.682a31.138,31.138,0,0,1-11.61,4.017,31.666,31.666,0,0,1-12.332-.75,30.675,30.675,0,0,1-10.975-5.388,28.912,28.912,0,0,1-7.771-9.12Z" transform="translate(-37.227 -38.524)" opacity="0.4"/>
      <path id="Path_288" data-name="Path 288" d="M361.438,423.207l4.611-5.849L359.9,403.429l-1.252,18.8a1.418,1.418,0,0,0,.245.9,1.537,1.537,0,0,0,.765.581,1.628,1.628,0,0,0,.979.03,1.554,1.554,0,0,0,.8-.535Z" transform="translate(-29.187 -34.879)" opacity="0.4"/>
      <path id="Path_289" data-name="Path 289" d="M166.691,336.556,107.329,491.924a40.563,40.563,0,0,0-1.925,22.254l29.094,150.7,36.054-5.749L156.727,514.946l65.553-122.467Z" transform="translate(-104.652 -50.351)" fill="#21252b"/>
      <path id="Path_290" data-name="Path 290" d="M244.211,227.667v4.049h-10.59v34.208a2.657,2.657,0,0,0,.691,1.81,2.926,2.926,0,0,0,1.773.932,2.894,2.894,0,0,0,1.14-.113,2.785,2.785,0,0,0,.993-.545,2.624,2.624,0,0,0,.673-.881,2.5,2.5,0,0,0,.237-1.066V254.024a7.523,7.523,0,0,1,.725-3.063,7.89,7.89,0,0,1,1.932-2.549,7.491,7.491,0,0,0,1.794-2.466,7.174,7.174,0,0,0,.633-2.936v-5.164a1.844,1.844,0,0,1,.307-1.012,1.986,1.986,0,0,1,.823-.706,2.123,2.123,0,0,1,1.092-.187,2.086,2.086,0,0,1,1.032.388c23.308,17.365,47.607,5.566,47.607,5.566v-14.23Z" transform="translate(-66.333 -75.543)" fill="#21252b"/>
      <path id="Path_291" data-name="Path 291" d="M269.971,244.25s12.679-.914,17.868-6.928" transform="translate(-55.533 -73.309)" fill="none" stroke="#fc9d9d" stroke-linecap="round" stroke-linejoin="round" stroke-width="1.381"/>
      <path id="Path_292" data-name="Path 292" d="M262.02,329.765l-23.76,28.149L264.8,341.655l30.066,8.463Z" transform="translate(-64.955 -51.922)" opacity="0.15"/>
      <path id="Path_293" data-name="Path 293" d="M248.717,341.842l9.473,8.783,5.131,184.705a4.241,4.241,0,0,0,.712,2.239l15.182,22.921a3.7,3.7,0,0,0,1.515,1.337,3.945,3.945,0,0,0,2.03.378,3.894,3.894,0,0,0,1.935-.7,3.62,3.62,0,0,0,1.258-1.559l10.59-24.374a4.206,4.206,0,0,0,.289-2.4l-31.27-183.06,6.162-12.4-12.795-7.924Z" transform="translate(-61.848 -51.917)" fill="#bfd8ef"/>
      <g id="Group_75" data-name="Group 75" transform="translate(196.349 292.668)" opacity="0.34">
        <path id="Path_294" data-name="Path 294" d="M258.766,453.851l.27,9.8,24.482-16.085-1.531-8.975Z" transform="translate(-255.212 -319.412)" fill="#21252b" opacity="0.34"/>
        <path id="Path_295" data-name="Path 295" d="M259.27,473.357l.27,9.8,27.515-18.068-1.54-8.975Z" transform="translate(-255.062 -315.358)" fill="#21252b" opacity="0.34"/>
        <path id="Path_296" data-name="Path 296" d="M259.775,492.858l.26,9.185a3.089,3.089,0,0,0,.058.594l30.49-20-1.54-8.975Z" transform="translate(-254.912 -311.297)" fill="#21252b" opacity="0.34"/>
        <path id="Path_297" data-name="Path 297" d="M269.372,515.513,290.2,501.8l1.569-3.583a4.191,4.191,0,0,0,.289-2.4l-.8-4.688L264.77,508.494Z" transform="translate(-253.428 -307.257)" fill="#21252b" opacity="0.34"/>
        <path id="Path_298" data-name="Path 298" d="M258.31,436.21l.27,9.8,21.739-14.276-1.531-8.975Z" transform="translate(-255.347 -323.075)" fill="#21252b" opacity="0.34"/>
        <path id="Path_299" data-name="Path 299" d="M256.487,365.661l.27,9.807,10.783-7.083L266,359.409Z" transform="translate(-255.889 -337.731)" fill="#21252b" opacity="0.34"/>
        <path id="Path_300" data-name="Path 300" d="M266.115,341.8l-10.089,6.626.279,9.806,8.039-5.283-.963-5.621Z" transform="translate(-256.026 -341.804)" fill="#21252b" opacity="0.34"/>
        <path id="Path_301" data-name="Path 301" d="M256.939,383.3l.27,9.8,13.526-8.883-1.531-8.975Z" transform="translate(-255.754 -334.068)" fill="#21252b" opacity="0.34"/>
        <path id="Path_302" data-name="Path 302" d="M257.852,418.571l.27,9.806,19-12.484-1.531-8.975Z" transform="translate(-255.483 -326.739)" fill="#21252b" opacity="0.34"/>
        <path id="Path_303" data-name="Path 303" d="M257.4,400.941l.27,9.8,16.261-10.684L272.4,391.08Z" transform="translate(-255.617 -330.404)" fill="#21252b" opacity="0.34"/>
      </g>
      <path id="Path_304" data-name="Path 304" d="M1046.661,455.462,1029.4,455.4a5.349,5.349,0,0,0-.963.082l-15.625,2.943a10.6,10.6,0,0,0-3.774,1.5,9.948,9.948,0,0,0-2.85,2.78l-7.894,11.7a1.851,1.851,0,0,0-.3,1.361,1.893,1.893,0,0,0,.741,1.2h0a2.12,2.12,0,0,0,1.473.417,2.072,2.072,0,0,0,1.357-.673l9.108-10.145,11.408-2.906-10.484,4.57-8.414,12.567a2.164,2.164,0,0,0-.356,1.491,2.262,2.262,0,0,0,.712,1.37h0a2.6,2.6,0,0,0,2.744.477,2.563,2.563,0,0,0,.8-.532l9.878-9.87,7.76-3.135-6.97,4.908-8.116,9.624a2.078,2.078,0,0,0,.328,3,2.352,2.352,0,0,0,2.965-.082l9.627-8.4,8.78-4.067-10.763,9.276a2.063,2.063,0,0,0-.722,1.395,2.007,2.007,0,0,0,.481,1.484h0a2.24,2.24,0,0,0,1.242.719,2.3,2.3,0,0,0,1.434-.162l14.653-7.494,10.59.53a17.675,17.675,0,0,0,10.917-3.1,16.154,16.154,0,0,0,6.412-8.943l.26-.914,60.576-81.486-31.992-21.5Z" transform="translate(160.766 -43.683)" fill="#ffb6b6"/>
      <path id="Path_305" data-name="Path 305" d="M1057.173,408.7l13.112,15.957a2.8,2.8,0,0,1,.144,3.418l-19.062,27.5s-6.239,15.7-21.71,15.244l9.223.439a17.679,17.679,0,0,0,10.917-3.1,16.161,16.161,0,0,0,6.412-8.944l.26-.914,23.76-31.988Z" transform="translate(170.183 -33.66)" opacity="0.15"/>
      <path id="Path_306" data-name="Path 306" d="M1154.365,325.182a141.151,141.151,0,0,1-14.345,61.974q-2.036,4.168-4.342,8.225a150.393,150.393,0,0,1-48.2,51.112,160.289,160.289,0,0,1-67.353,24.873,163.187,163.187,0,0,1-71.917-6.748,156.543,156.543,0,0,1-60.912-36.91c-1.117-1.1-2.224-2.221-3.3-3.354a145.3,145.3,0,0,1-35.949-64.236,140.232,140.232,0,0,1,.77-72.734A145.6,145.6,0,0,1,886.1,223.839a156.645,156.645,0,0,1,64.744-38.9q5.776-1.827,11.794-3.162a163.136,163.136,0,0,1,36.391-4.076h4.8a164.486,164.486,0,0,1,21.6,2.047c36.112,5.88,68.874,23.7,92.49,50.3a142.978,142.978,0,0,1,36.516,95.066Z" transform="translate(114.908 -87.103)" fill="#bfd8ef"/>
      <path id="Path_307" data-name="Path 307" d="M1049.121,251.591l-7.923,7.385a79.085,79.085,0,0,1-50.534,20.911l-.068.082h-15.4a79.278,79.278,0,0,1-54.038-21.02l-7.923-7.385a3.345,3.345,0,0,1-.8-1.089,3.16,3.16,0,0,1-.019-2.6,3.347,3.347,0,0,1,.77-1.1,3.667,3.667,0,0,1,2.532-.988,18.133,18.133,0,0,0,12.477-4.888,16.329,16.329,0,0,0,5.18-11.828V187.78h94.743c.058.1.106.211.154.32a9.165,9.165,0,0,1,.77,3.884v37.133a16.337,16.337,0,0,0,5.16,11.836,18.141,18.141,0,0,0,12.468,4.907,3.682,3.682,0,0,1,1.935.6,3.411,3.411,0,0,1,1.271,1.505,3.209,3.209,0,0,1,.193,1.921,3.341,3.341,0,0,1-.943,1.708Z" transform="translate(135.267 -84.771)" fill="#21252b"/>
      <path id="Path_308" data-name="Path 308" d="M771.673,310.128l-14.441-5.264-18.967.868a2.222,2.222,0,0,0-1,.227,2.1,2.1,0,0,0-.768.642,1.955,1.955,0,0,0-.364.908,1.92,1.92,0,0,0,.125.964h0a2.7,2.7,0,0,0,1.048,1.163,2.9,2.9,0,0,0,1.551.419l17.754.832,9.762,5.676-9.762-5.676-15.771.6a2.012,2.012,0,0,0-.811.185,1.9,1.9,0,0,0-.653.492,1.789,1.789,0,0,0-.373.708,1.742,1.742,0,0,0-.022.791h0a2.3,2.3,0,0,0,.912,1.128,2.5,2.5,0,0,0,1.437.4l15.578.7,14.239,8.061L756.914,315.9l-11.62,1.682a1.231,1.231,0,0,0-.53.192,1.18,1.18,0,0,0-.385.4,1.1,1.1,0,0,0-.154.517,1.121,1.121,0,0,0,.106.529h0a1.611,1.611,0,0,0,.7.724,1.757,1.757,0,0,0,1.021.19H759.08l13.661,6.7Z" transform="translate(82.968 -57.683)" fill="#fc9d9d"/>
      <path id="Path_309" data-name="Path 309" d="M771.673,310.128l-14.441-5.264-18.967.868a2.222,2.222,0,0,0-1,.227,2.1,2.1,0,0,0-.768.642,1.955,1.955,0,0,0-.364.908,1.92,1.92,0,0,0,.125.964h0a2.7,2.7,0,0,0,1.048,1.163,2.9,2.9,0,0,0,1.551.419l17.754.832,9.762,5.676-9.762-5.676-15.771.6a2.012,2.012,0,0,0-.811.185,1.9,1.9,0,0,0-.653.492,1.789,1.789,0,0,0-.373.708,1.742,1.742,0,0,0-.022.791h0a2.3,2.3,0,0,0,.912,1.128,2.5,2.5,0,0,0,1.437.4l15.578.7,14.239,8.061L756.914,315.9l-11.62,1.682a1.231,1.231,0,0,0-.53.192,1.18,1.18,0,0,0-.385.4,1.1,1.1,0,0,0-.154.517,1.121,1.121,0,0,0,.106.529h0a1.611,1.611,0,0,0,.7.724,1.757,1.757,0,0,0,1.021.19H759.08l13.661,6.7Z" transform="translate(82.968 -57.683)" fill="#fc9d9d"/>
      <path id="Path_310" data-name="Path 310" d="M771.673,310.128l-14.441-5.264-18.967.868a2.222,2.222,0,0,0-1,.227,2.1,2.1,0,0,0-.768.642,1.955,1.955,0,0,0-.364.908,1.92,1.92,0,0,0,.125.964h0a2.7,2.7,0,0,0,1.048,1.163,2.9,2.9,0,0,0,1.551.419l17.754.832,9.762,5.676-9.762-5.676-15.771.6a2.012,2.012,0,0,0-.811.185,1.9,1.9,0,0,0-.653.492,1.789,1.789,0,0,0-.373.708,1.742,1.742,0,0,0-.022.791h0a2.3,2.3,0,0,0,.912,1.128,2.5,2.5,0,0,0,1.437.4l15.578.7,14.239,8.061L756.914,315.9l-11.62,1.682a1.231,1.231,0,0,0-.53.192,1.18,1.18,0,0,0-.385.4,1.1,1.1,0,0,0-.154.517,1.121,1.121,0,0,0,.106.529h0a1.611,1.611,0,0,0,.7.724,1.757,1.757,0,0,0,1.021.19H759.08l13.661,6.7Z" transform="translate(82.968 -57.683)" opacity="0.15"/>
      <path id="Path_311" data-name="Path 311" d="M749.828,226.586l-100.481,17.52a7.339,7.339,0,0,0-6.177,8.5l24.457,126.4a7.674,7.674,0,0,0,8.956,5.864l100.477-17.52a7.334,7.334,0,0,0,6.181-8.5l-24.456-126.4A7.673,7.673,0,0,0,749.828,226.586Z" transform="translate(55.313 -75.821)" fill="#bfd8ef"/>
      <path id="Path_312" data-name="Path 312" d="M752.156,230.61l-100.933,17.12a7.371,7.371,0,0,0-6.243,8.5l23.9,126.963a7.7,7.7,0,0,0,8.959,5.927L778.764,372a7.373,7.373,0,0,0,6.248-8.5l-23.9-126.963A7.7,7.7,0,0,0,752.156,230.61Z" transform="translate(55.852 -74.889)" fill="#fff" opacity="0.5"/>
      <path id="Path_313" data-name="Path 313" d="M761.107,236.565l4.158,22.09-116.134,19.7-4.121-22.1a6.945,6.945,0,0,1,.054-2.859,7.147,7.147,0,0,1,1.205-2.621,7.543,7.543,0,0,1,2.172-1.98,7.947,7.947,0,0,1,2.806-1.039l100.944-17.118a8.03,8.03,0,0,1,5.75,1.215A7.287,7.287,0,0,1,761.107,236.565Z" transform="translate(55.861 -74.882)" fill="#bfd8ef"/>
      <path id="Path_314" data-name="Path 314" d="M668.766,236.835a4.492,4.492,0,0,0-5.228-3.458,4.3,4.3,0,0,0-3.643,4.963l2.519,13.378a4.491,4.491,0,0,0,5.228,3.458,4.3,4.3,0,0,0,3.643-4.963Z" transform="translate(60.299 -74.237)" fill="#bfd8ef"/>
      <path id="Path_315" data-name="Path 315" d="M685.069,233.915a4.491,4.491,0,0,0-5.228-3.457,4.3,4.3,0,0,0-3.643,4.963l2.518,13.378a4.494,4.494,0,0,0,5.229,3.458,4.3,4.3,0,0,0,3.643-4.963Z" transform="translate(65.143 -74.913)" fill="#bfd8ef"/>
      <path id="Path_316" data-name="Path 316" d="M701.383,231.005a4.492,4.492,0,0,0-5.229-3.458,4.3,4.3,0,0,0-3.642,4.963l2.517,13.378a4.492,4.492,0,0,0,5.228,3.458,4.3,4.3,0,0,0,3.643-4.963Z" transform="translate(69.99 -75.586)" fill="#bfd8ef"/>
      <path id="Path_317" data-name="Path 317" d="M717.694,228.092a4.491,4.491,0,0,0-5.228-3.458,4.3,4.3,0,0,0-3.643,4.963l2.517,13.378a4.492,4.492,0,0,0,5.229,3.458,4.3,4.3,0,0,0,3.643-4.963Z" transform="translate(74.836 -76.26)" fill="#bfd8ef"/>
      <g id="Group_76" data-name="Group 76" transform="translate(720.123 148.307)" opacity="0.5">
        <path id="Path_318" data-name="Path 318" d="M668.766,236.835a4.492,4.492,0,0,0-5.228-3.458,4.3,4.3,0,0,0-3.643,4.963l2.519,13.378a4.491,4.491,0,0,0,5.228,3.458,4.3,4.3,0,0,0,3.643-4.963Z" transform="translate(-659.824 -222.544)" fill="#fff" opacity="0.5"/>
        <path id="Path_319" data-name="Path 319" d="M685.069,233.917a4.493,4.493,0,0,0-5.228-3.458,4.3,4.3,0,0,0-3.643,4.964l2.518,13.378a4.494,4.494,0,0,0,5.229,3.458,4.3,4.3,0,0,0,3.643-4.963Z" transform="translate(-654.981 -223.22)" fill="#fff" opacity="0.5"/>
        <path id="Path_320" data-name="Path 320" d="M701.383,231.005a4.492,4.492,0,0,0-5.229-3.458,4.3,4.3,0,0,0-3.642,4.963l2.517,13.378a4.492,4.492,0,0,0,5.228,3.458,4.3,4.3,0,0,0,3.643-4.963Z" transform="translate(-650.133 -223.893)" fill="#fff" opacity="0.5"/>
        <path id="Path_321" data-name="Path 321" d="M717.694,228.093a4.491,4.491,0,0,0-5.228-3.458,4.3,4.3,0,0,0-3.643,4.963l2.517,13.378a4.492,4.492,0,0,0,5.229,3.458,4.3,4.3,0,0,0,3.643-4.963Z" transform="translate(-645.287 -224.567)" fill="#fff" opacity="0.5"/>
      </g>
      <path id="Path_322" data-name="Path 322" d="M683.481,302.568l-3.037-16.14a1.2,1.2,0,0,0-1.4-.924l-11.259,1.91a1.148,1.148,0,0,0-.972,1.325l3.037,16.14a1.2,1.2,0,0,0,1.4.924l11.259-1.909A1.149,1.149,0,0,0,683.481,302.568Z" transform="translate(62.37 -62.166)" fill="#bfd8ef"/>
      <path id="Path_323" data-name="Path 323" d="M707.545,298.262l-3.038-16.141a1.2,1.2,0,0,0-1.4-.923l-11.259,1.909a1.148,1.148,0,0,0-.972,1.325l3.037,16.141a1.2,1.2,0,0,0,1.4.923l11.259-1.909A1.149,1.149,0,0,0,707.545,298.262Z" transform="translate(69.52 -63.162)" fill="#fff"/>
      <path id="Path_324" data-name="Path 324" d="M728.412,276.676l-12.1,2.053a1.148,1.148,0,0,0-.973,1.325l3.038,16.14a1.2,1.2,0,0,0,1.4.924l12.1-2.053a1.149,1.149,0,0,0,.973-1.325L729.808,277.6A1.2,1.2,0,0,0,728.412,276.676Z" transform="translate(76.787 -64.209)" fill="#fff"/>
      <path id="Path_325" data-name="Path 325" d="M688.6,331.22l-3.038-16.141a1.2,1.2,0,0,0-1.4-.923L672.9,316.066a1.15,1.15,0,0,0-.973,1.326l3.038,16.14a1.2,1.2,0,0,0,1.4.924l11.259-1.91A1.149,1.149,0,0,0,688.6,331.22Z" transform="translate(63.89 -55.537)" fill="#fff"/>
      <path id="Path_326" data-name="Path 326" d="M712.662,326.921l-3.037-16.141a1.2,1.2,0,0,0-1.4-.923l-11.259,1.909a1.15,1.15,0,0,0-.973,1.326l3.038,16.14a1.2,1.2,0,0,0,1.4.924l11.259-1.91A1.148,1.148,0,0,0,712.662,326.921Z" transform="translate(71.04 -56.532)" fill="#fff"/>
      <path id="Path_327" data-name="Path 327" d="M737.793,322.428l-3.038-16.14a1.2,1.2,0,0,0-1.4-.924l-11.259,1.91a1.148,1.148,0,0,0-.972,1.325l3.037,16.14a1.2,1.2,0,0,0,1.4.924l11.259-1.91A1.148,1.148,0,0,0,737.793,322.428Z" transform="translate(78.507 -57.571)" fill="#bfd8ef"/>
      <path id="Path_328" data-name="Path 328" d="M770.915,307.349l18.87,17.026a10.055,10.055,0,0,0,3.851,2.12l43.227,11.826-11.476,24.32-33.311-14.5a9.391,9.391,0,0,0-3.572-.813l-2.051-.091c-8.106.128-15.4-2.4-20.891-7.476h-.125a7.943,7.943,0,0,0-2.725-1.609c-3.726-1.225-12.718-4.259-12.718-4.259a1.028,1.028,0,0,1-.375-.144,1.1,1.1,0,0,1-.279-.276.967.967,0,0,1-.135-.36,1.018,1.018,0,0,1,.038-.38c.558-2.221,3.033-3.756,5.95-3.464l6.739.667c3.572.32,6.306-2.276,5.478-5.182L763.637,312.4a3.1,3.1,0,0,0-.606-1.072,3.192,3.192,0,0,0-1.011-.756l-21.7-10.967a1.747,1.747,0,0,1-.956-.914,1.621,1.621,0,0,1-.007-1.289h0a2.3,2.3,0,0,1,1.278-1.089,2.446,2.446,0,0,1,1.717.038c5.778,2.047,23.108,8.591,27.093,10.245a2.7,2.7,0,0,1,1.473.749Z" transform="translate(83.89 -59.692)" fill="#ffb6b6"/>
      <path id="Path_329" data-name="Path 329" d="M828.786,329.847l-8.347,11.031c-3,3.656-6.739,5.374-11.235,3.6l-20.718-8.171a11.108,11.108,0,0,0-5.228-.914c-4.814.393-15.25.6-24.011-3.866a.476.476,0,0,0,.144.139.463.463,0,0,0,.193.062h.125c5.478,5.081,12.785,7.6,20.891,7.476l2.051.1a9.237,9.237,0,0,1,3.572.813l33.253,14.733.058-.228Z" transform="translate(89.839 -51.903)" opacity="0.15"/>
      <path id="Path_330" data-name="Path 330" d="M1106.056,293.5c-1.762,7.659-3.437,15.125-4.814,21.331-.568,2.6-1.1,4.972-1.55,7.046-1.213,5.484-1.926,8.929-1.926,8.929l-.885,5.529-8.4,52.231a112.4,112.4,0,0,0-2.628,32.728c.347,4.926.857,9.715,1.483,14.294a162.843,162.843,0,0,1-152.94.53c2.272-14.879,2.686-31.074-1.589-45.057l-5.613-16.67-13.555,25.462a19.4,19.4,0,0,1-11.072,9.2,20.623,20.623,0,0,1-14.691-.67l-3.389-1.49-12.3-5.383-1.8-.8-58.939-25.8-5.969-2.6v-.11l9.531-24.813v-.082l6.344,1.627L865.169,360.2,883.4,364.88s34.129-82.875,35.361-85l.144-.347v.073A33.667,33.667,0,0,1,938.819,264.7l29.672-7.851,2.551-.685,1.29-.347,1.261-.338,2.532-.676h.1l65.88-.494,7.009,1.417.2.046,4.342.914,2.118.43,29.787,6.151a27.541,27.541,0,0,1,9.57,3.961,25.963,25.963,0,0,1,7.24,7.137,24.587,24.587,0,0,1,3.812,9.226,24.033,24.033,0,0,1-.192,9.909Z" transform="translate(103.576 -69.38)" fill="#61656d"/>
      <path id="Path_331" data-name="Path 331" d="M1010.375,268.58l7.7-10.437.963-1.3-2.108-.439-4.573-.914L987.5,258.334l-51.93-2.742-3.851,1.033-2.156.576,7.837,11.086a45.2,45.2,0,0,0,36.767,18.681c.857,0,1.723,0,2.59-.073A46.154,46.154,0,0,0,995.78,281.4a43.625,43.625,0,0,0,14.6-12.822Z" transform="translate(140.443 -69.105)" opacity="0.6"/>
      <path id="Path_332" data-name="Path 332" d="M1035.661,268.236l97.236,94.135a20.561,20.561,0,0,1,6.287,13.153,20.266,20.266,0,0,1-4.14,13.9l-52.739,69.349L1058.469,440.6,1090.73,381.2l-68.22-56.134Z" transform="translate(168.059 -66.157)" fill="#61656d"/>
      <path id="Path_333" data-name="Path 333" d="M1037.863,314.476l-2.012-10.437a.9.9,0,0,0-.356-.428,1,1,0,0,0-1.088,0,.9.9,0,0,0-.356.428L1030.3,325.16l58.13,47.89,2.724-4.57a4.361,4.361,0,0,0,.568-3.052,4.456,4.456,0,0,0-1.608-2.7l-46.471-38.659a16.544,16.544,0,0,1-5.776-9.6Z" transform="translate(170.372 -58.01)" opacity="0.15"/>
      <path id="Path_334" data-name="Path 334" d="M1050.239,409.173l2.84-5.246,24.829,18.525-3.793,4.963Z" transform="translate(176.298 -34.764)" opacity="0.6"/>
      <path id="Path_335" data-name="Path 335" d="M997.482,211.033l1.348,47.058a8.275,8.275,0,0,0,1.954,5.109,9.084,9.084,0,0,0,4.785,2.979l5.622,1.435-6.739,9.139a38.262,38.262,0,0,1-12.833,11.227,40.488,40.488,0,0,1-16.7,4.785c-.761,0-1.521.055-2.272.064a40.679,40.679,0,0,1-18.254-4.384,38.331,38.331,0,0,1-13.969-11.984l-6.316-8.746,6.364-1.654a9.17,9.17,0,0,0,4.505-2.715,8.409,8.409,0,0,0,2.118-4.651l6.5-55.841Z" transform="translate(141.792 -81.284)" fill="#ffb6b6"/>
      <path id="Path_336" data-name="Path 336" d="M963.045,252.775l2.339.091a31.523,31.523,0,0,0,21.95-7.609,28.425,28.425,0,0,0,9.868-20.11l1.849-40.67a9.391,9.391,0,0,0-2.686-6.937,10.418,10.418,0,0,0-7.057-3.117l-39.973-1.636a13.674,13.674,0,0,0-9.474,3.3,12.347,12.347,0,0,0-4.275,8.679l-1.714,37.773a28.138,28.138,0,0,0,8,20.847,31.244,31.244,0,0,0,21.171,9.386Z" transform="translate(141.715 -88.242)" fill="#ffb6b6"/>
      <path id="Path_337" data-name="Path 337" d="M958.773,206.266a3.157,3.157,0,1,0-3.321-3.153A3.237,3.237,0,0,0,958.773,206.266Z" transform="translate(148.135 -81.953)" fill="#21252b"/>
      <path id="Path_338" data-name="Path 338" d="M957.01,204.17a.677.677,0,1,0-.713-.676A.695.695,0,0,0,957.01,204.17Z" transform="translate(148.386 -81.292)" fill="#fff"/>
      <path id="Path_339" data-name="Path 339" d="M939.022,206.266a3.157,3.157,0,1,0-3.322-3.153A3.237,3.237,0,0,0,939.022,206.266Z" transform="translate(142.266 -81.953)" fill="#21252b"/>
      <path id="Path_340" data-name="Path 340" d="M937.163,204.073a.677.677,0,1,0-.713-.676A.694.694,0,0,0,937.163,204.073Z" transform="translate(142.489 -81.315)" fill="#fff"/>
      <g id="Group_77" data-name="Group 77" transform="translate(1090.751 130.898)" opacity="0.3">
        <path id="Path_341" data-name="Path 341" d="M949.062,217.926l4.467.329a.994.994,0,0,0,.7-.219.9.9,0,0,0,.327-.626.862.862,0,0,0-.231-.666.955.955,0,0,0-.655-.316l-4.467-.329a2.082,2.082,0,0,1-1.309-.7,1.9,1.9,0,0,1-.443-1.361,1.926,1.926,0,0,1,.664-1.279,2.1,2.1,0,0,1,1.406-.5.992.992,0,0,0,.693-.218.872.872,0,0,0,.337-.622.888.888,0,0,0-.038-.356,1.019,1.019,0,0,0-.193-.313.956.956,0,0,0-.289-.221,1.031,1.031,0,0,0-.366-.1,4.073,4.073,0,0,0-2.782.948,3.668,3.668,0,0,0-1.319,2.517,3.625,3.625,0,0,0,.9,2.679,4.02,4.02,0,0,0,2.6,1.342Z" transform="translate(-945.556 -210.429)" opacity="0.3"/>
      </g>
      <path id="Path_342" data-name="Path 342" d="M981.339,221.022s14.441,2.267,18.735-11.15-13.315-17.365-17.079-3.811L979.722,220.9Z" transform="translate(155.346 -82.488)" fill="#ffb6b6"/>
      <path id="Path_343" data-name="Path 343" d="M994.833,201.669a5.8,5.8,0,0,0-1.993-1.159,5.982,5.982,0,0,0-2.32-.3,5.821,5.821,0,0,0-2.137.815,5.414,5.414,0,0,0-1.608,1.561,10.385,10.385,0,0,0-2.128,5.182l-.2,1.471c-.183,1.088,1.781,1.572,1.925.311l.25-1.59a10.28,10.28,0,0,1,1.675-4.314,3.149,3.149,0,0,1,1.03-1.132,3.344,3.344,0,0,1,1.473-.53,3.4,3.4,0,0,1,1.569.2,3.184,3.184,0,0,1,1.271.879.888.888,0,0,0,.337.245.988.988,0,0,0,.4.087,1,1,0,0,0,.414-.089,1.077,1.077,0,0,0,.337-.248.856.856,0,0,0,.183-.358.808.808,0,0,0,.01-.4.887.887,0,0,0-.173-.366.964.964,0,0,0-.318-.26Z" transform="translate(156.745 -81.899)" opacity="0.3"/>
      <path id="Path_344" data-name="Path 344" d="M984.972,216.2a2.755,2.755,0,1,0-2.9-2.751A2.829,2.829,0,0,0,984.972,216.2Z" transform="translate(156.045 -79.469)" fill="#bfd8ef"/>
      <path id="Path_345" data-name="Path 345" d="M983.585,215.579a3.239,3.239,0,0,0,2.282-.708,2.942,2.942,0,0,0,1.1-2.033,2.806,2.806,0,0,0-.356-1.618,2.777,2.777,0,0,1,.713.832,2.614,2.614,0,0,1,.327,1.028,2.523,2.523,0,0,1-.115,1.069,2.638,2.638,0,0,1-.529.946,2.857,2.857,0,0,1-.876.68,3,3,0,0,1-1.088.31,3.073,3.073,0,0,1-1.126-.107,2.953,2.953,0,0,1-.991-.508A3.839,3.839,0,0,0,983.585,215.579Z" transform="translate(156.296 -79.348)" opacity="0.15"/>
      <path id="Path_346" data-name="Path 346" d="M940.3,191.978c12.862.393,21.69-3.446,26.831-6.736a29.944,29.944,0,0,0,8.231-7.385.777.777,0,0,0,.125-.615.794.794,0,0,0-.366-.523.892.892,0,0,0-.645-.123.867.867,0,0,0-.549.347c-.1.137-9.926,14.111-33.571,13.389a.9.9,0,0,0-.616.2.79.79,0,0,0-.279.555.813.813,0,0,0,.212.582.884.884,0,0,0,.587.268Z" transform="translate(143.384 -87.362)" fill="#21252b"/>
      <path id="Path_347" data-name="Path 347" d="M984.234,216.762l-4.7-.073,4.968,9.459Z" transform="translate(155.291 -78.083)" opacity="0.15"/>
      <path id="Path_348" data-name="Path 348" d="M944.958,233.841a35,35,0,0,0,15.741,4.1c1.242.055,2.464.046,3.668,0a13.945,13.945,0,0,0,1.406-.091h.308c.732-.073,1.444-.165,2.128-.274.289-.046.568-.082.847-.137a34.544,34.544,0,0,0,10.8-3.72.886.886,0,0,1,.327-.107.944.944,0,0,1,.347.019,1,1,0,0,1,.308.143.811.811,0,0,1,.231.246.91.91,0,0,1,.115.311.943.943,0,0,1-.029.327.858.858,0,0,1-.145.3,1.042,1.042,0,0,1-.26.218,37.115,37.115,0,0,1-14.037,4.3,27.509,27.509,0,0,1-16.068,5.191,34.637,34.637,0,0,1-6.864-.722Z" transform="translate(144.668 -74.169)" opacity="0.15"/>
      <path id="Path_349" data-name="Path 349" d="M815.058,329.847l-9.608,25.005,5.969,2.6,9.974-25.974Z" transform="translate(103.567 -51.903)" opacity="0.6"/>
      <path id="Path_350" data-name="Path 350" d="M913.838,307.189l-3.177,10.629-4.034,6.4a49.7,49.7,0,0,0-6.691,36.914h0l-12.881,25.59c-3.321,6.05-12.67,10.693-20.7,8.07l3.408,1.49a20.632,20.632,0,0,0,14.7.674,19.346,19.346,0,0,0,11.062-9.2l13.546-25.462-1.078-3.445a40.962,40.962,0,0,1-1.608-16.989,41.4,41.4,0,0,1,5.459-16.251l3.36-5.712V307.4a.641.641,0,0,0-.164-.428.742.742,0,0,0-.424-.223.72.72,0,0,0-.472.086.69.69,0,0,0-.308.355Z" transform="translate(121.663 -57.249)" opacity="0.15"/>
      <path id="Path_351" data-name="Path 351" d="M855.49,373.229l1.81.786Z" transform="translate(118.434 -41.866)"/>
      <path id="Path_352" data-name="Path 352" d="M920.13,271.619a2.251,2.251,0,1,0-2.368-2.248A2.31,2.31,0,0,0,920.13,271.619Z" transform="translate(136.936 -66.415)" fill="#fff"/>
      <path id="Path_353" data-name="Path 353" d="M885.736,313.034a2.251,2.251,0,1,0-2.368-2.248A2.309,2.309,0,0,0,885.736,313.034Z" transform="translate(126.717 -56.833)" fill="#fff"/>
      <path id="Path_354" data-name="Path 354" d="M874.024,374.393a2.251,2.251,0,1,0-2.368-2.248A2.31,2.31,0,0,0,874.024,374.393Z" transform="translate(123.237 -42.637)" fill="#fff"/>
      <path id="Path_355" data-name="Path 355" d="M823.768,342.67a2.251,2.251,0,1,0-2.368-2.248A2.31,2.31,0,0,0,823.768,342.67Z" transform="translate(108.306 -49.976)" fill="#fff"/>
      <path id="Path_356" data-name="Path 356" d="M1019.49,289.336a2.251,2.251,0,1,0-2.368-2.248A2.31,2.31,0,0,0,1019.49,289.336Z" transform="translate(166.458 -62.316)" fill="#fff"/>
      <path id="Path_357" data-name="Path 357" d="M1069.9,318.275a2.251,2.251,0,1,0-2.368-2.248A2.31,2.31,0,0,0,1069.9,318.275Z" transform="translate(181.436 -55.621)" fill="#fff"/>
      <path id="Path_358" data-name="Path 358" d="M1018.718,342.67a2.251,2.251,0,1,0-2.369-2.248A2.31,2.31,0,0,0,1018.718,342.67Z" transform="translate(166.229 -49.976)" fill="#fff"/>
      <path id="Path_359" data-name="Path 359" d="M980.079,343.265a2.251,2.251,0,1,0-2.368-2.248A2.31,2.31,0,0,0,980.079,343.265Z" transform="translate(154.748 -49.839)" fill="#fff"/>
      <path id="Path_360" data-name="Path 360" d="M1097.556,376.219a2.251,2.251,0,1,0-2.368-2.248A2.31,2.31,0,0,0,1097.556,376.219Z" transform="translate(189.653 -42.215)" fill="#fff"/>
      <path id="Path_361" data-name="Path 361" d="M951.644,307.557a2.251,2.251,0,1,0-2.368-2.248A2.31,2.31,0,0,0,951.644,307.557Z" transform="translate(146.3 -58.1)" fill="#fff"/>
      <path id="Path_362" data-name="Path 362" d="M983.433,388.473a2.251,2.251,0,1,0-2.368-2.248A2.31,2.31,0,0,0,983.433,388.473Z" transform="translate(155.745 -39.38)" fill="#fff"/>
      <path id="Path_363" data-name="Path 363" d="M936.036,365.738a2.251,2.251,0,1,0-2.368-2.248A2.31,2.31,0,0,0,936.036,365.738Z" transform="translate(141.662 -44.639)" fill="#fff"/>
      <path id="Path_364" data-name="Path 364" d="M913.22,327.641a2.251,2.251,0,1,0-2.369-2.248A2.309,2.309,0,0,0,913.22,327.641Z" transform="translate(134.883 -53.454)" fill="#fff"/>
      <path id="Path_365" data-name="Path 365" d="M907.651,272.363l3.87,6.393a1.2,1.2,0,0,0,1.589.406,1.075,1.075,0,0,0,.423-1.5l-3.87-6.393a1.191,1.191,0,0,0-1.579-.406A1.071,1.071,0,0,0,907.651,272.363Z" transform="translate(133.887 -65.584)" opacity="0.6"/>
      <path id="Path_366" data-name="Path 366" d="M941.777,339.485h7.74a1.1,1.1,0,1,0,0-2.193h-7.74a1.1,1.1,0,1,0,0,2.193Z" transform="translate(143.728 -50.181)" opacity="0.6"/>
      <path id="Path_367" data-name="Path 367" d="M992.968,314.951l4.525-5.958a1.057,1.057,0,0,0-.26-1.531,1.191,1.191,0,0,0-1.608.247l-4.534,5.958a1.057,1.057,0,0,0,.26,1.531A1.2,1.2,0,0,0,992.968,314.951Z" transform="translate(158.658 -57.13)" opacity="0.6"/>
      <path id="Path_368" data-name="Path 368" d="M1003.729,265.41l7.712.642a1.14,1.14,0,0,0,1.251-1,1.113,1.113,0,0,0-1.049-1.188l-7.712-.642a1.14,1.14,0,0,0-1.251,1A1.113,1.113,0,0,0,1003.729,265.41Z" transform="translate(162.165 -67.317)" opacity="0.6"/>
      <path id="Path_369" data-name="Path 369" d="M924.475,399.843l4.535-5.958a1.057,1.057,0,0,0-.26-1.531,1.2,1.2,0,0,0-1.617.247l-4.525,5.958a1.057,1.057,0,0,0,.26,1.531A1.188,1.188,0,0,0,924.475,399.843Z" transform="translate(138.311 -37.489)" opacity="0.6"/>
      <path id="Path_370" data-name="Path 370" d="M1093.813,353.294l4.525-5.958a1.057,1.057,0,0,0-.26-1.531,1.19,1.19,0,0,0-1.608.248l-4.535,5.957a1.057,1.057,0,0,0,.26,1.531A1.2,1.2,0,0,0,1093.813,353.294Z" transform="translate(188.621 -48.259)" opacity="0.6"/>
      <path id="Path_371" data-name="Path 371" d="M1044.574,292.484l6.71,3.674a1.191,1.191,0,0,0,1.579-.4,1.072,1.072,0,0,0-.424-1.5l-6.71-3.674a1.18,1.18,0,0,0-1.569.4A1.061,1.061,0,0,0,1044.574,292.484Z" transform="translate(174.444 -61.021)" opacity="0.6"/>
      <path id="Path_372" data-name="Path 372" d="M1062.989,397.513l6.7,3.674a1.189,1.189,0,0,0,1.579-.4,1.064,1.064,0,0,0-.423-1.5l-6.7-3.674a1.192,1.192,0,0,0-1.579.4A1.072,1.072,0,0,0,1062.989,397.513Z" transform="translate(179.914 -36.721)" opacity="0.6"/>
      <path id="Path_373" data-name="Path 373" d="M882.3,333.686l6.7,3.674a1.192,1.192,0,0,0,1.579-.4,1.071,1.071,0,0,0-.424-1.5l-6.7-3.674a1.189,1.189,0,0,0-1.579.4A1.065,1.065,0,0,0,882.3,333.686Z" transform="translate(126.227 -51.488)" opacity="0.6"/>
      <path id="Path_374" data-name="Path 374" d="M836.579,357.873l7.731.477a1.13,1.13,0,0,0,1.223-1.024,1.115,1.115,0,0,0-1.078-1.165l-7.721-.477a1.131,1.131,0,0,0-1.223,1.024A1.107,1.107,0,0,0,836.579,357.873Z" transform="translate(112.497 -45.926)" opacity="0.6"/>
      <path id="Path_375" data-name="Path 375" d="M1011.009,389.044l7.615,1.3a1.151,1.151,0,0,0,1.338-.885,1.1,1.1,0,0,0-.934-1.274l-7.615-1.3a1.146,1.146,0,0,0-1.338.885A1.1,1.1,0,0,0,1011.009,389.044Z" transform="translate(164.359 -38.711)" opacity="0.6"/>
      <g id="Group_78" data-name="Group 78" transform="translate(1244.819 291.177)" opacity="0.15">
        <path id="Path_376" data-name="Path 376" d="M1120.519,345.666l-5.228-5.072a24.94,24.94,0,0,1-.77,28.917l-50.187,68.307,5.574,4.25,52.19-68.408C1129.733,363.378,1127.663,352.758,1120.519,345.666Z" transform="translate(-1064.334 -340.594)" opacity="0.15"/>
      </g>
      <path id="Path_377" data-name="Path 377" d="M1000.439,186.252Z" transform="translate(161.499 -85.126)" fill="#21252b"/>
      <path id="Path_378" data-name="Path 378" d="M1023.9,197.513a6.132,6.132,0,0,0-.741-1.142,5.715,5.715,0,0,1-.664-.676h0a7.512,7.512,0,0,1-1.743-4.908,4.861,4.861,0,0,1,0-.749c1.107-11.452-2.012-23.607-15.818-34.528-22.827-18.068-66.429-10.885-68.6,19.348a2.947,2.947,0,0,1-.539,1.5,3.137,3.137,0,0,1-1.271,1.03c-2.888,1.28-8.453,5-8.27,14.723a27.527,27.527,0,0,0,1.377,7.933c.395.914,4.015,9.139,9.088,14.623l.8-17.145v-1.051a2.821,2.821,0,0,1,.308-1.147,2.905,2.905,0,0,1,.78-.927,3,3,0,0,1,1.107-.546,3.126,3.126,0,0,1,1.242-.068c7.461,1.106,25.869,2.376,36.854-9.231,0,0,4.284,10.126,15.4,11.634l-.058,1.334-.163,3.509a44.621,44.621,0,0,0,2.128,15.784,1.854,1.854,0,0,0,.626.734,1.982,1.982,0,0,0,.924.34,2.008,2.008,0,0,0,.982-.144,1.946,1.946,0,0,0,.78-.591c1.406-1.828,3.562-4.743,3.851-4.57,2.3,1.215,7.259,11.881,8.212,9.276,2.186-5.968.655-11.232,3.013-19.659l10.532-4.369C1023.993,197.724,1023.945,197.617,1023.9,197.513Z" transform="translate(139.456 -94.505)" fill="#21252b"/>
      <path id="Path_379" data-name="Path 379" d="M972.094,193.821a13.852,13.852,0,0,0-7.1,1.367,12.975,12.975,0,0,0-5.285,4.7,12.792,12.792,0,0,0-8.222-.064,13.124,13.124,0,0,0-3.283-3.162,13.74,13.74,0,0,0-11.38-1.819h0a13.272,13.272,0,0,0-4.929,2.568h0a12.33,12.33,0,0,0-4.554,8.536,12.031,12.031,0,0,0,1.993,7.691,13.136,13.136,0,0,0,6.46,5.022,13.4,13.4,0,0,0,3.755.823,13.807,13.807,0,0,0,8.568-2.213,12.7,12.7,0,0,0,5.189-6.844,11.441,11.441,0,0,0,.491-2.541,11.93,11.93,0,0,0-1.406-6.663,11.2,11.2,0,0,1,6.556.1,12.3,12.3,0,0,0-1.078,4.03v.046a12.141,12.141,0,0,0,2.7,8.575,13.377,13.377,0,0,0,8.01,4.71,13.871,13.871,0,0,0,9.29-1.532,12.759,12.759,0,0,0,5.873-7,11.913,11.913,0,0,0,.587-2.833,12.243,12.243,0,0,0-3.187-9.148A13.538,13.538,0,0,0,972.094,193.821Zm-20,13.956a10.633,10.633,0,0,1-1.213,4.133,11.159,11.159,0,0,1-2.792,3.374,11.766,11.766,0,0,1-3.947,2.1,12.107,12.107,0,0,1-4.486.5,11.737,11.737,0,0,1-3.851-.914,11.374,11.374,0,0,1-5.131-4.253,10.515,10.515,0,0,1-1.714-6.258,10.678,10.678,0,0,1,2.291-6.088,11.589,11.589,0,0,1,5.516-3.8h0a12.067,12.067,0,0,1,12.439,3.046,10.647,10.647,0,0,1,2.936,7.711Zm18.08,9.569a11.79,11.79,0,0,1-7.866-3.746,10.636,10.636,0,0,1-2.8-7.916h0v-.137a10.486,10.486,0,0,1,1.223-4.133,11.033,11.033,0,0,1,2.792-3.374,11.767,11.767,0,0,1,3.938-2.1,12.169,12.169,0,0,1,4.486-.511,11.983,11.983,0,0,1,4.352,1.158,11.577,11.577,0,0,1,3.562,2.652,10.822,10.822,0,0,1,2.214,3.741,10.518,10.518,0,0,1,.539,4.262,10.039,10.039,0,0,1-.568,2.65,11.139,11.139,0,0,1-4.592,5.66,12.058,12.058,0,0,1-7.278,1.8Z" transform="translate(139.771 -83.382)" fill="#fff"/>
      <g id="Group_79" data-name="Group 79" transform="translate(1096.748 150.758)" opacity="0.3">
        <path id="Path_380" data-name="Path 380" d="M950.952,228.562h.115c3.167.265,4.814.375,4.814.375a1.109,1.109,0,0,0,.732-.265,1.009,1.009,0,0,0,.337-.667,1,1,0,0,0-.231-.706,1.08,1.08,0,0,0-.684-.363s-1.589-.11-4.727-.375a1.083,1.083,0,0,0-.732.219.981.981,0,0,0-.385.637.953.953,0,0,0,.173.715,1.041,1.041,0,0,0,.635.412Z" transform="translate(-950.18 -226.558)" opacity="0.3"/>
      </g>
      <g id="Group_80" data-name="Group 80" transform="translate(1090.606 141.426)" opacity="0.3">
        <path id="Path_381" data-name="Path 381" d="M950.626,225.9c8.761,1.234,12.679-3.29,14.056-5.529a.758.758,0,0,0,.115-.347.782.782,0,0,0-.029-.365,1.033,1.033,0,0,0-.173-.325.932.932,0,0,0-.3-.238.961.961,0,0,0-.366-.112.988.988,0,0,0-.375.029.97.97,0,0,0-.347.166.952.952,0,0,0-.25.278c-1.348,2.193-5.613,6.955-16.193,3.656a1,1,0,0,0-.385-.056.992.992,0,0,0-.385.1,1.014,1.014,0,0,0-.308.233.9.9,0,0,0-.183.33.8.8,0,0,0-.058.367.94.94,0,0,0,.106.357.953.953,0,0,0,.241.29,1.039,1.039,0,0,0,.347.174,27.444,27.444,0,0,0,4.486,1Z" transform="translate(-945.444 -218.979)" opacity="0.3"/>
      </g>
      <path id="Path_382" data-name="Path 382" d="M1044.352,271.185a26.929,26.929,0,0,0-14.624-8.3l-29.787-6.151-2.118-.43-1.714-.347a21.426,21.426,0,0,1-2.494,4.615l13.373,2.943a26.51,26.51,0,0,1,14.624,8.838,27.8,27.8,0,0,1,5.622,11.076,26.919,26.919,0,0,1,.154,12.293c-1.184,5.484-1.357,13.426-4.371,18.233a19.546,19.546,0,0,1-1.733,2.267c-8.742,10.327-19.938,21.934-19.938,35.881,1.338,8.308,6.364,15.537,8.1,23.662a55.382,55.382,0,0,1,.347,21.285,127.5,127.5,0,0,0-2.628,34.876c.308,4.634.751,9.139,1.271,13.508a159.467,159.467,0,0,0,23-10.218c-.626-4.57-1.136-9.368-1.483-14.294a112.738,112.738,0,0,1,2.628-32.728l8.4-52.231.885-5.529s.741-3.436,1.926-8.947c.452-2.075.963-4.451,1.55-7.046,1.377-6.206,3.052-13.709,4.814-21.331a24.049,24.049,0,0,0-.183-11.61,24.892,24.892,0,0,0-5.613-10.316Z" transform="translate(159.474 -68.997)" opacity="0.15"/>
      <path id="Path_383" data-name="Path 383" d="M272.468,558.107v4.734" transform="translate(-54.791 0.907)" fill="none" stroke="#61656d" stroke-linecap="round" stroke-linejoin="round" stroke-width="2.798"/>
      <path id="Path_384" data-name="Path 384" d="M272.468,569.544V715.9a19.391,19.391,0,0,0,6.138,14.057,21.534,21.534,0,0,0,14.811,5.821H770.982" transform="translate(-54.791 3.553)" fill="none" stroke="#61656d" stroke-linecap="round" stroke-linejoin="round" stroke-width="2.798" stroke-dasharray="10.23 10.23"/>
      <path id="Path_385" data-name="Path 385" d="M660.593,704.546h4.987" transform="translate(60.527 34.786)" fill="none" stroke="#61656d" stroke-linecap="round" stroke-linejoin="round" stroke-width="2.798"/>
      <path id="Path_386" data-name="Path 386" d="M917.057,687.051h35.13a21.935,21.935,0,0,0,15.077-5.927,19.731,19.731,0,0,0,6.238-14.308V415.431" transform="translate(136.727 -32.102)" fill="none" stroke="#61656d" stroke-linecap="round" stroke-linejoin="round" stroke-width="2.798" stroke-dasharray="10.36 10.36"/>
      <path id="Path_387" data-name="Path 387" d="M274.528,564.035a8.557,8.557,0,1,0-9-8.545A8.782,8.782,0,0,0,274.528,564.035Z" transform="translate(-56.853 -1.676)" fill="#21252b"/>
      <path id="Path_388" data-name="Path 388" d="M666.5,714.7a8.557,8.557,0,1,0-9-8.545A8.782,8.782,0,0,0,666.5,714.7Z" transform="translate(59.607 33.181)" fill="#21252b"/>
      <path id="Path_389" data-name="Path 389" d="M915.029,646.168a8.557,8.557,0,1,0-9-8.545A8.785,8.785,0,0,0,915.029,646.168Z" transform="translate(133.45 17.326)" fill="#21252b"/>
      <path id="Path_390" data-name="Path 390" d="M963.109,426.844a8.557,8.557,0,1,0-9-8.545A8.785,8.785,0,0,0,963.109,426.844Z" transform="translate(147.735 -33.416)" fill="#21252b"/>
    </g>
  </g>
</svg>
